M48
; DRILL file {KiCad 7.0.7} date Mon Sep 30 22:56:24 2024
; FORMAT={-:-/ absolute / inch / decimal}
; #@! TF.CreationDate,2024-09-30T22:56:24+02:00
; #@! TF.GenerationSoftware,Kicad,Pcbnew,7.0.7
; #@! TF.FileFunction,Plated,1,2,PTH
FMAT,2
INCH
; #@! TA.AperFunction,Plated,PTH,ComponentDrill
T1C0.0433
; #@! TA.AperFunction,Plated,PTH,ComponentDrill
T2C0.1378
%
G90
G05
T1
X4.6015Y-1.8712
X4.6015Y-2.0484
X4.7196Y-1.8712
X4.7196Y-2.0484
X4.8377Y-1.8712
X4.8377Y-2.0484
X4.9559Y-1.8712
X4.9559Y-2.0484
X5.074Y-1.8712
X5.074Y-2.0484
X5.1921Y-1.8712
X5.1921Y-2.0484
X5.3102Y-1.8712
X5.3102Y-2.0484
X5.4283Y-1.8712
X5.4283Y-2.0484
X5.6625Y-1.8712
X5.6645Y-2.0484
X5.8003Y-1.8712
X5.8003Y-2.0484
X5.9224Y-1.8712
X5.9224Y-2.0484
X6.0405Y-1.8712
X6.0405Y-2.0484
X6.1586Y-1.8712
X6.1586Y-2.0484
X6.2767Y-1.8712
X6.2767Y-2.0484
X6.3948Y-1.8712
X6.3948Y-2.0484
X6.5129Y-1.8712
X6.5129Y-2.0484
X6.6311Y-1.8712
X6.6311Y-2.0484
X6.7492Y-1.8712
X6.7492Y-2.0484
X6.8712Y-1.8712
X6.8712Y-2.0484
X7.009Y-1.8712
X7.009Y-2.0484
X7.1468Y-1.8712
X7.1468Y-2.0484
T2
X4.5858Y-1.6468
X5.5405Y-1.6468
X7.1724Y-1.6468
T0
M30
