%TF.GenerationSoftware,KiCad,Pcbnew,7.0.7*%
%TF.CreationDate,2024-09-30T22:56:21+02:00*%
%TF.ProjectId,SSRP4EFE,53535250-3445-4464-952e-6b696361645f,rev?*%
%TF.SameCoordinates,Original*%
%TF.FileFunction,Legend,Top*%
%TF.FilePolarity,Positive*%
%FSLAX46Y46*%
G04 Gerber Fmt 4.6, Leading zero omitted, Abs format (unit mm)*
G04 Created by KiCad (PCBNEW 7.0.7) date 2024-09-30 22:56:21*
%MOMM*%
%LPD*%
G01*
G04 APERTURE LIST*
%ADD10C,0.000000*%
%ADD11C,0.300000*%
%ADD12C,0.254000*%
%ADD13C,0.100000*%
%ADD14C,0.200000*%
G04 APERTURE END LIST*
D10*
G36*
X122421595Y-142411439D02*
G01*
X122505475Y-142417817D01*
X122588135Y-142428320D01*
X122669471Y-142442845D01*
X122749379Y-142461287D01*
X122827757Y-142483543D01*
X122904499Y-142509509D01*
X122979503Y-142539081D01*
X123052664Y-142572156D01*
X123123880Y-142608629D01*
X123193045Y-142648398D01*
X123260056Y-142691358D01*
X123324810Y-142737406D01*
X123387203Y-142786437D01*
X123447130Y-142838348D01*
X123504488Y-142893036D01*
X123559174Y-142950395D01*
X123611084Y-143010324D01*
X123660113Y-143072718D01*
X123706159Y-143137472D01*
X123749116Y-143204485D01*
X123788882Y-143273650D01*
X123825353Y-143344866D01*
X123858425Y-143418028D01*
X123887994Y-143493032D01*
X123913956Y-143569775D01*
X123936208Y-143648153D01*
X123954646Y-143728062D01*
X123969166Y-143809398D01*
X123979664Y-143892057D01*
X123986037Y-143975937D01*
X123988181Y-144060932D01*
X123988181Y-151525000D01*
X99000000Y-151525000D01*
X99000000Y-150690629D01*
X99917864Y-150690629D01*
X101583199Y-150690629D01*
X102168069Y-150690629D01*
X102760910Y-150690629D01*
X102762006Y-149913460D01*
X103533636Y-150690629D01*
X104101040Y-150690629D01*
X104101040Y-150246513D01*
X104693699Y-150246513D01*
X104694120Y-150273835D01*
X104695382Y-150300289D01*
X104697486Y-150325877D01*
X104700431Y-150350597D01*
X104704218Y-150374449D01*
X104708846Y-150397435D01*
X104714315Y-150419553D01*
X104720626Y-150440804D01*
X104727779Y-150461188D01*
X104735772Y-150480705D01*
X104744608Y-150499354D01*
X104754284Y-150517136D01*
X104764802Y-150534050D01*
X104776161Y-150550098D01*
X104788362Y-150565278D01*
X104801404Y-150579590D01*
X104815287Y-150593036D01*
X104830011Y-150605614D01*
X104845577Y-150617324D01*
X104861984Y-150628167D01*
X104879232Y-150638143D01*
X104897322Y-150647251D01*
X104916253Y-150655492D01*
X104936025Y-150662866D01*
X104956638Y-150669372D01*
X104978093Y-150675011D01*
X105000389Y-150679782D01*
X105023526Y-150683685D01*
X105047504Y-150686722D01*
X105072323Y-150688890D01*
X105097984Y-150690192D01*
X105124485Y-150690625D01*
X106112574Y-150690625D01*
X106137917Y-150690203D01*
X106162462Y-150688934D01*
X106186209Y-150686820D01*
X106209158Y-150683859D01*
X106231310Y-150680054D01*
X106252664Y-150675402D01*
X106273220Y-150669905D01*
X106292978Y-150663562D01*
X106311939Y-150656374D01*
X106330102Y-150648340D01*
X106347466Y-150639461D01*
X106364033Y-150629736D01*
X106379802Y-150619165D01*
X106394774Y-150607749D01*
X106408947Y-150595488D01*
X106422322Y-150582381D01*
X106434899Y-150568429D01*
X106446678Y-150553631D01*
X106457659Y-150537988D01*
X106467843Y-150521499D01*
X106477228Y-150504166D01*
X106485814Y-150485986D01*
X106493603Y-150466962D01*
X106500594Y-150447092D01*
X106506786Y-150426378D01*
X106512180Y-150404817D01*
X106516776Y-150382412D01*
X106520574Y-150359162D01*
X106523574Y-150335066D01*
X106525775Y-150310125D01*
X106527782Y-150257708D01*
X106527782Y-149993420D01*
X106527112Y-149970467D01*
X106525647Y-149948241D01*
X106523388Y-149926741D01*
X106520335Y-149905968D01*
X106516488Y-149885921D01*
X106511847Y-149866601D01*
X106506412Y-149848007D01*
X106500183Y-149830140D01*
X106493160Y-149813000D01*
X106485344Y-149796586D01*
X106476734Y-149780898D01*
X106467329Y-149765937D01*
X106457131Y-149751702D01*
X106446139Y-149738194D01*
X106434354Y-149725412D01*
X106421774Y-149713356D01*
X106408401Y-149702027D01*
X106394235Y-149691424D01*
X106379274Y-149681547D01*
X106363520Y-149672396D01*
X106346972Y-149663972D01*
X106329631Y-149656274D01*
X106311496Y-149649302D01*
X106292568Y-149643056D01*
X106272846Y-149637537D01*
X106252330Y-149632743D01*
X106231021Y-149628676D01*
X106208919Y-149625335D01*
X106162333Y-149620830D01*
X106112574Y-149619230D01*
X105425287Y-149619230D01*
X105425287Y-150078919D01*
X105982650Y-150078919D01*
X105982650Y-150190954D01*
X105308690Y-150190954D01*
X105308690Y-149504885D01*
X106527721Y-149506041D01*
X106527782Y-149506041D01*
X106527782Y-149358346D01*
X106527162Y-149337854D01*
X106525721Y-149318012D01*
X106523462Y-149298821D01*
X106520383Y-149280281D01*
X106516484Y-149262391D01*
X106511767Y-149245152D01*
X106506229Y-149228564D01*
X106499872Y-149212627D01*
X106492696Y-149197340D01*
X106484700Y-149182703D01*
X106475885Y-149168718D01*
X106466250Y-149155383D01*
X106455796Y-149142698D01*
X106444522Y-149130664D01*
X106432428Y-149119281D01*
X106419515Y-149108548D01*
X106405783Y-149098466D01*
X106391231Y-149089035D01*
X106375859Y-149080253D01*
X106359668Y-149072123D01*
X106342657Y-149064643D01*
X106324826Y-149057813D01*
X106306176Y-149051634D01*
X106286706Y-149046106D01*
X106245307Y-149037000D01*
X106200630Y-149030496D01*
X106152674Y-149026593D01*
X106101478Y-149025294D01*
X107087033Y-149025294D01*
X107087033Y-150690629D01*
X107704337Y-150690629D01*
X107704337Y-149025294D01*
X108280322Y-149025294D01*
X108280322Y-150690629D01*
X108873163Y-150690629D01*
X108874260Y-149913460D01*
X109645890Y-150690629D01*
X110213295Y-150690629D01*
X110213295Y-149025294D01*
X110805829Y-149025294D01*
X110805829Y-150690629D01*
X112471165Y-150690629D01*
X113056035Y-150690629D01*
X114721368Y-150690629D01*
X114721368Y-150690569D01*
X115306177Y-150690569D01*
X115905712Y-150690569D01*
X115905712Y-150075452D01*
X116558555Y-150075452D01*
X116558555Y-150690569D01*
X117132594Y-150690569D01*
X117132594Y-150069977D01*
X117132534Y-150054304D01*
X117131806Y-150038936D01*
X117130411Y-150023872D01*
X117128349Y-150009113D01*
X117125619Y-149994657D01*
X117122221Y-149980506D01*
X117118157Y-149966658D01*
X117113424Y-149953114D01*
X117108024Y-149939873D01*
X117101957Y-149926934D01*
X117095222Y-149914298D01*
X117087820Y-149901964D01*
X117079750Y-149889933D01*
X117071013Y-149878203D01*
X117061608Y-149866774D01*
X117051536Y-149855647D01*
X117061887Y-149844975D01*
X117071581Y-149833794D01*
X117080616Y-149822103D01*
X117088994Y-149809902D01*
X117096713Y-149797191D01*
X117103774Y-149783969D01*
X117110176Y-149770237D01*
X117115920Y-149755993D01*
X117121005Y-149741238D01*
X117125430Y-149725971D01*
X117129196Y-149710192D01*
X117132303Y-149693902D01*
X117134750Y-149677098D01*
X117136538Y-149659782D01*
X117137665Y-149641954D01*
X117138132Y-149623612D01*
X117138070Y-149623612D01*
X117138070Y-149358287D01*
X117137445Y-149337794D01*
X117135992Y-149317952D01*
X117133711Y-149298762D01*
X117130602Y-149280221D01*
X117126665Y-149262332D01*
X117121899Y-149245093D01*
X117116306Y-149228505D01*
X117109885Y-149212567D01*
X117102635Y-149197280D01*
X117094558Y-149182644D01*
X117085652Y-149168658D01*
X117075918Y-149155323D01*
X117065356Y-149142639D01*
X117053965Y-149130605D01*
X117041747Y-149119221D01*
X117028700Y-149108489D01*
X117014824Y-149098407D01*
X117000121Y-149088975D01*
X116984589Y-149080194D01*
X116968229Y-149072063D01*
X116951040Y-149064583D01*
X116933023Y-149057754D01*
X116914177Y-149051575D01*
X116894503Y-149046046D01*
X116852670Y-149036940D01*
X116807522Y-149030436D01*
X116759060Y-149026534D01*
X116709712Y-149025294D01*
X117720690Y-149025294D01*
X117720690Y-150690629D01*
X118338055Y-150690629D01*
X118914039Y-150690629D01*
X119506943Y-150690629D01*
X119507977Y-149913460D01*
X120279668Y-150690629D01*
X120847012Y-150690629D01*
X120847012Y-150246513D01*
X121439608Y-150246513D01*
X121440029Y-150273835D01*
X121441291Y-150300289D01*
X121443395Y-150325877D01*
X121446340Y-150350597D01*
X121450127Y-150374449D01*
X121454755Y-150397435D01*
X121460225Y-150419553D01*
X121466536Y-150440804D01*
X121473688Y-150461188D01*
X121481682Y-150480705D01*
X121490517Y-150499354D01*
X121500193Y-150517136D01*
X121510711Y-150534050D01*
X121522071Y-150550098D01*
X121534271Y-150565278D01*
X121547313Y-150579590D01*
X121561196Y-150593036D01*
X121575921Y-150605614D01*
X121591487Y-150617324D01*
X121607894Y-150628167D01*
X121625142Y-150638143D01*
X121643232Y-150647251D01*
X121662163Y-150655492D01*
X121681935Y-150662866D01*
X121702548Y-150669372D01*
X121724003Y-150675011D01*
X121746299Y-150679782D01*
X121769436Y-150683685D01*
X121793414Y-150686722D01*
X121818233Y-150688890D01*
X121843894Y-150690192D01*
X121870395Y-150690625D01*
X122858422Y-150690625D01*
X122883770Y-150690203D01*
X122908320Y-150688934D01*
X122932072Y-150686820D01*
X122955026Y-150683859D01*
X122977182Y-150680054D01*
X122998540Y-150675402D01*
X123019100Y-150669905D01*
X123038862Y-150663562D01*
X123057826Y-150656374D01*
X123075991Y-150648340D01*
X123093359Y-150639461D01*
X123109928Y-150629736D01*
X123125699Y-150619165D01*
X123140672Y-150607749D01*
X123154847Y-150595488D01*
X123168224Y-150582381D01*
X123180802Y-150568429D01*
X123192583Y-150553631D01*
X123203565Y-150537988D01*
X123213749Y-150521499D01*
X123223135Y-150504166D01*
X123231722Y-150485986D01*
X123239511Y-150466962D01*
X123246502Y-150447092D01*
X123252695Y-150426378D01*
X123258089Y-150404817D01*
X123262686Y-150382412D01*
X123266483Y-150359162D01*
X123269483Y-150335066D01*
X123271684Y-150310125D01*
X123273691Y-150257708D01*
X123273691Y-149993420D01*
X123273020Y-149970467D01*
X123271555Y-149948241D01*
X123269295Y-149926741D01*
X123266241Y-149905968D01*
X123262393Y-149885921D01*
X123257751Y-149866601D01*
X123252314Y-149848007D01*
X123246083Y-149830140D01*
X123239058Y-149813000D01*
X123231240Y-149796586D01*
X123222627Y-149780898D01*
X123213220Y-149765937D01*
X123203019Y-149751702D01*
X123192025Y-149738194D01*
X123180236Y-149725412D01*
X123167654Y-149713356D01*
X123154278Y-149702027D01*
X123140109Y-149691424D01*
X123125145Y-149681547D01*
X123109388Y-149672396D01*
X123092838Y-149663972D01*
X123075494Y-149656274D01*
X123057357Y-149649302D01*
X123038426Y-149643056D01*
X123018702Y-149637537D01*
X122998184Y-149632743D01*
X122976874Y-149628676D01*
X122954770Y-149625335D01*
X122908182Y-149620830D01*
X122858422Y-149619230D01*
X122171196Y-149619230D01*
X122171196Y-150078919D01*
X122728559Y-150078919D01*
X122728559Y-150190954D01*
X122054661Y-150190954D01*
X122054661Y-149504885D01*
X123273632Y-149506041D01*
X123273695Y-149506041D01*
X123273695Y-149358346D01*
X123273079Y-149337854D01*
X123271644Y-149318012D01*
X123269389Y-149298821D01*
X123266314Y-149280281D01*
X123262420Y-149262391D01*
X123257706Y-149245152D01*
X123252171Y-149228564D01*
X123245818Y-149212627D01*
X123238644Y-149197340D01*
X123230650Y-149182703D01*
X123221837Y-149168718D01*
X123212203Y-149155383D01*
X123201750Y-149142698D01*
X123190477Y-149130664D01*
X123178384Y-149119281D01*
X123165472Y-149108548D01*
X123151739Y-149098466D01*
X123137186Y-149089035D01*
X123121814Y-149080253D01*
X123105621Y-149072123D01*
X123088608Y-149064643D01*
X123070776Y-149057813D01*
X123052123Y-149051634D01*
X123032651Y-149046106D01*
X122991246Y-149037000D01*
X122946561Y-149030496D01*
X122898595Y-149026593D01*
X122847349Y-149025293D01*
X121871490Y-149025293D01*
X121844916Y-149025618D01*
X121819185Y-149026593D01*
X121794298Y-149028219D01*
X121770256Y-149030496D01*
X121747057Y-149033423D01*
X121724702Y-149037000D01*
X121703191Y-149041227D01*
X121682524Y-149046106D01*
X121662701Y-149051634D01*
X121643721Y-149057813D01*
X121625586Y-149064643D01*
X121608294Y-149072123D01*
X121591846Y-149080253D01*
X121576241Y-149089035D01*
X121561480Y-149098466D01*
X121547563Y-149108548D01*
X121534490Y-149119281D01*
X121522260Y-149130664D01*
X121510873Y-149142698D01*
X121500331Y-149155383D01*
X121490632Y-149168718D01*
X121481776Y-149182703D01*
X121473764Y-149197340D01*
X121466595Y-149212627D01*
X121460270Y-149228564D01*
X121454788Y-149245152D01*
X121450150Y-149262391D01*
X121446355Y-149280281D01*
X121443403Y-149298821D01*
X121441295Y-149318012D01*
X121440030Y-149337854D01*
X121439608Y-149358346D01*
X121439608Y-150246513D01*
X120847012Y-150246513D01*
X120847012Y-149025294D01*
X120246320Y-149025294D01*
X120246320Y-149802464D01*
X119469151Y-149025294D01*
X118914039Y-149025294D01*
X118914039Y-150690629D01*
X118338055Y-150690629D01*
X118338055Y-149025294D01*
X117720690Y-149025294D01*
X116709712Y-149025294D01*
X116707284Y-149025233D01*
X115306177Y-149025233D01*
X115306177Y-150690569D01*
X114721368Y-150690569D01*
X114721368Y-150186634D01*
X113673339Y-150186634D01*
X113673339Y-150076610D01*
X114721368Y-150076610D01*
X114721368Y-149623610D01*
X113673339Y-149623610D01*
X113673339Y-149507015D01*
X114721370Y-149507015D01*
X114721370Y-149025294D01*
X113056035Y-149025294D01*
X113056035Y-150690629D01*
X112471165Y-150690629D01*
X112471165Y-150186634D01*
X111423134Y-150186634D01*
X111423134Y-150076610D01*
X112471165Y-150076610D01*
X112471165Y-149623610D01*
X111423134Y-149623610D01*
X111423134Y-149507015D01*
X112471165Y-149507015D01*
X112471165Y-149025294D01*
X110805829Y-149025294D01*
X110213295Y-149025294D01*
X109612603Y-149025294D01*
X109612603Y-149802464D01*
X108835434Y-149025294D01*
X108280322Y-149025294D01*
X107704337Y-149025294D01*
X107087033Y-149025294D01*
X106101478Y-149025294D01*
X106101439Y-149025293D01*
X105125581Y-149025293D01*
X105099007Y-149025618D01*
X105073276Y-149026593D01*
X105048390Y-149028219D01*
X105024347Y-149030496D01*
X105001149Y-149033423D01*
X104978794Y-149037000D01*
X104957283Y-149041227D01*
X104936616Y-149046106D01*
X104916793Y-149051634D01*
X104897813Y-149057813D01*
X104879677Y-149064643D01*
X104862385Y-149072123D01*
X104845937Y-149080253D01*
X104830333Y-149089035D01*
X104815572Y-149098466D01*
X104801655Y-149108548D01*
X104788581Y-149119281D01*
X104776351Y-149130664D01*
X104764965Y-149142698D01*
X104754422Y-149155383D01*
X104744723Y-149168718D01*
X104735867Y-149182703D01*
X104727855Y-149197340D01*
X104720686Y-149212627D01*
X104714361Y-149228564D01*
X104708879Y-149245152D01*
X104704241Y-149262391D01*
X104700446Y-149280281D01*
X104697494Y-149298821D01*
X104695386Y-149318012D01*
X104694121Y-149337854D01*
X104693699Y-149358346D01*
X104693699Y-150246513D01*
X104101040Y-150246513D01*
X104101040Y-149025294D01*
X103500348Y-149025294D01*
X103500348Y-149802464D01*
X102723179Y-149025294D01*
X102168069Y-149025294D01*
X102168069Y-150690629D01*
X101583199Y-150690629D01*
X101583199Y-150186634D01*
X100535168Y-150186634D01*
X100535168Y-150076610D01*
X101583199Y-150076610D01*
X101583199Y-149623610D01*
X100535168Y-149623610D01*
X100535168Y-149507015D01*
X101583199Y-149507015D01*
X101583199Y-149025294D01*
X99917864Y-149025294D01*
X99917864Y-150690629D01*
X99000000Y-150690629D01*
X99000000Y-148206925D01*
X111655475Y-148206925D01*
X113500695Y-148206925D01*
X113500695Y-146313875D01*
X115509979Y-146313875D01*
X115509979Y-148206925D01*
X117276635Y-148206925D01*
X117276635Y-148206869D01*
X117806189Y-148206869D01*
X119647999Y-148206869D01*
X119647999Y-146293309D01*
X122039995Y-146293309D01*
X122115883Y-146290622D01*
X122189363Y-146285537D01*
X122260434Y-146278056D01*
X122329096Y-146268178D01*
X122395350Y-146255904D01*
X122459195Y-146241233D01*
X122520631Y-146224165D01*
X122579658Y-146204701D01*
X122636276Y-146182840D01*
X122690486Y-146158583D01*
X122742286Y-146131930D01*
X122791677Y-146102880D01*
X122838660Y-146071434D01*
X122883233Y-146037591D01*
X122925398Y-146001353D01*
X122965153Y-145962718D01*
X123002499Y-145921687D01*
X123037435Y-145878260D01*
X123069963Y-145832437D01*
X123100081Y-145784218D01*
X123127791Y-145733603D01*
X123153090Y-145680592D01*
X123175981Y-145625185D01*
X123196462Y-145567382D01*
X123214533Y-145507184D01*
X123230196Y-145444590D01*
X123243448Y-145379600D01*
X123254291Y-145312215D01*
X123262725Y-145242434D01*
X123268749Y-145170257D01*
X123273569Y-145018718D01*
X123273569Y-144280618D01*
X123264659Y-144138593D01*
X123256731Y-144070934D01*
X123246487Y-144005510D01*
X123233928Y-143942321D01*
X123219053Y-143881368D01*
X123201863Y-143822650D01*
X123182357Y-143766168D01*
X123160535Y-143711921D01*
X123136398Y-143659909D01*
X123109946Y-143610133D01*
X123081177Y-143562593D01*
X123050094Y-143517287D01*
X123016694Y-143474218D01*
X122980980Y-143433384D01*
X122942949Y-143394785D01*
X122902603Y-143358422D01*
X122859942Y-143324294D01*
X122814965Y-143292402D01*
X122767672Y-143262745D01*
X122718064Y-143235324D01*
X122666140Y-143210139D01*
X122611901Y-143187189D01*
X122555346Y-143166474D01*
X122496476Y-143147996D01*
X122435290Y-143131753D01*
X122371789Y-143117745D01*
X122305972Y-143105973D01*
X122237839Y-143096437D01*
X122167391Y-143089137D01*
X122019548Y-143081242D01*
X117806189Y-143081242D01*
X117806189Y-148206869D01*
X117276635Y-148206869D01*
X117276635Y-146296715D01*
X117276453Y-146248495D01*
X117274216Y-146201209D01*
X117269926Y-146154857D01*
X117263581Y-146109439D01*
X117255181Y-146064954D01*
X117244727Y-146021404D01*
X117232218Y-145978787D01*
X117217653Y-145937104D01*
X117201034Y-145896354D01*
X117182358Y-145856538D01*
X117161628Y-145817655D01*
X117138841Y-145779706D01*
X117113998Y-145742689D01*
X117087100Y-145706606D01*
X117058144Y-145671455D01*
X117027133Y-145637237D01*
X117059003Y-145604411D01*
X117088845Y-145570012D01*
X117116659Y-145534038D01*
X117142444Y-145496491D01*
X117166202Y-145457369D01*
X117187931Y-145416673D01*
X117207632Y-145374402D01*
X117225305Y-145330556D01*
X117240950Y-145285135D01*
X117254567Y-145238138D01*
X117266155Y-145189565D01*
X117275715Y-145139416D01*
X117283247Y-145087690D01*
X117288751Y-145034388D01*
X117292226Y-144979509D01*
X117293674Y-144923053D01*
X117293674Y-144106389D01*
X117291760Y-144043317D01*
X117287296Y-143982247D01*
X117280283Y-143923179D01*
X117270720Y-143866114D01*
X117258607Y-143811051D01*
X117243944Y-143757991D01*
X117226732Y-143706933D01*
X117206970Y-143657877D01*
X117184658Y-143610824D01*
X117159797Y-143565774D01*
X117132387Y-143522726D01*
X117102426Y-143481680D01*
X117069916Y-143442636D01*
X117034857Y-143405595D01*
X116997248Y-143370556D01*
X116957090Y-143337520D01*
X116914382Y-143306485D01*
X116869125Y-143277453D01*
X116821318Y-143250424D01*
X116770962Y-143225396D01*
X116718056Y-143202371D01*
X116662602Y-143181348D01*
X116604598Y-143162328D01*
X116544044Y-143145309D01*
X116415290Y-143117279D01*
X116276338Y-143097258D01*
X116127190Y-143085245D01*
X115967845Y-143081241D01*
X111655475Y-143081241D01*
X111655475Y-148206925D01*
X99000000Y-148206925D01*
X99000000Y-145131480D01*
X99647794Y-145131480D01*
X99648985Y-145203024D01*
X99652559Y-145272425D01*
X99658515Y-145339684D01*
X99666854Y-145404801D01*
X99677576Y-145467777D01*
X99690680Y-145528610D01*
X99706167Y-145587301D01*
X99724036Y-145643849D01*
X99744288Y-145698256D01*
X99766923Y-145750520D01*
X99791940Y-145800642D01*
X99819340Y-145848621D01*
X99849122Y-145894458D01*
X99881287Y-145938153D01*
X99915834Y-145979705D01*
X99952764Y-146019114D01*
X99992077Y-146056381D01*
X100033772Y-146091505D01*
X100077850Y-146124487D01*
X100124310Y-146155325D01*
X100173153Y-146184021D01*
X100224379Y-146210574D01*
X100277987Y-146234984D01*
X100333978Y-146257252D01*
X100392351Y-146277376D01*
X100453107Y-146295357D01*
X100516245Y-146311195D01*
X100581766Y-146324890D01*
X100649670Y-146336442D01*
X100719956Y-146345851D01*
X100867676Y-146358239D01*
X103591082Y-146358239D01*
X103591082Y-146689711D01*
X99873258Y-146689711D01*
X99873258Y-148206867D01*
X104148142Y-148206867D01*
X104217732Y-148205532D01*
X104285120Y-148201528D01*
X104350305Y-148194854D01*
X104413288Y-148185510D01*
X104474069Y-148173497D01*
X104532647Y-148158814D01*
X104589022Y-148141461D01*
X104643195Y-148121439D01*
X104695166Y-148098747D01*
X104744934Y-148073386D01*
X104792500Y-148045355D01*
X104837864Y-148014654D01*
X104881025Y-147981284D01*
X104921983Y-147945244D01*
X104960740Y-147906534D01*
X104997294Y-147865155D01*
X105031645Y-147821106D01*
X105063795Y-147774388D01*
X105093742Y-147725000D01*
X105121486Y-147672942D01*
X105147029Y-147618215D01*
X105170369Y-147560818D01*
X105191507Y-147500752D01*
X105210442Y-147438015D01*
X105227175Y-147372610D01*
X105241706Y-147304534D01*
X105264162Y-147160375D01*
X105277808Y-147005537D01*
X105282646Y-146840021D01*
X105282646Y-146156627D01*
X105280709Y-146080510D01*
X105276610Y-146006789D01*
X105270347Y-145935464D01*
X105261923Y-145866536D01*
X105251336Y-145800003D01*
X105238586Y-145735867D01*
X105223674Y-145674126D01*
X105206599Y-145614782D01*
X105187362Y-145557834D01*
X105165963Y-145503282D01*
X105142402Y-145451126D01*
X105116678Y-145401366D01*
X105088791Y-145354003D01*
X105058743Y-145309036D01*
X105026532Y-145266464D01*
X104992159Y-145226289D01*
X104955623Y-145188510D01*
X104916926Y-145153127D01*
X104876066Y-145120141D01*
X104833044Y-145089550D01*
X104787860Y-145061355D01*
X104740514Y-145035557D01*
X104691006Y-145012155D01*
X104639336Y-144991149D01*
X104585503Y-144972539D01*
X104529509Y-144956325D01*
X104471353Y-144942507D01*
X104411034Y-144931086D01*
X104348554Y-144922060D01*
X104283912Y-144915431D01*
X104217108Y-144911198D01*
X104148142Y-144909361D01*
X101236758Y-144909361D01*
X101236758Y-144588173D01*
X104838411Y-144588173D01*
X104838411Y-144448087D01*
X105651605Y-144448087D01*
X105651665Y-144448087D01*
X105651665Y-145131419D01*
X105652857Y-145202962D01*
X105656431Y-145272363D01*
X105662387Y-145339623D01*
X105670726Y-145404740D01*
X105681448Y-145467715D01*
X105694552Y-145528548D01*
X105710039Y-145587239D01*
X105727908Y-145643788D01*
X105748160Y-145698194D01*
X105770795Y-145750459D01*
X105795812Y-145800580D01*
X105823212Y-145848560D01*
X105852994Y-145894397D01*
X105885159Y-145938091D01*
X105919706Y-145979643D01*
X105956636Y-146019053D01*
X105995949Y-146056320D01*
X106037644Y-146091444D01*
X106081722Y-146124425D01*
X106128182Y-146155264D01*
X106177025Y-146183960D01*
X106228251Y-146210513D01*
X106281859Y-146234923D01*
X106337850Y-146257190D01*
X106396223Y-146277315D01*
X106456979Y-146295296D01*
X106520118Y-146311134D01*
X106585639Y-146324829D01*
X106653542Y-146336381D01*
X106723829Y-146345790D01*
X106871549Y-146358177D01*
X109594954Y-146358177D01*
X109594954Y-146689650D01*
X105877130Y-146689650D01*
X105877130Y-148206867D01*
X110151954Y-148206867D01*
X110221544Y-148205532D01*
X110288932Y-148201528D01*
X110354117Y-148194854D01*
X110417100Y-148185510D01*
X110477881Y-148173497D01*
X110536459Y-148158814D01*
X110592834Y-148141461D01*
X110647007Y-148121439D01*
X110698978Y-148098747D01*
X110748746Y-148073386D01*
X110796312Y-148045355D01*
X110841675Y-148014654D01*
X110884836Y-147981284D01*
X110925795Y-147945244D01*
X110964551Y-147906534D01*
X111001105Y-147865155D01*
X111035457Y-147821106D01*
X111067606Y-147774388D01*
X111097553Y-147725000D01*
X111125298Y-147672942D01*
X111150840Y-147618215D01*
X111174180Y-147560818D01*
X111195318Y-147500752D01*
X111214254Y-147438015D01*
X111230987Y-147372610D01*
X111245518Y-147304534D01*
X111267973Y-147160375D01*
X111281620Y-147005537D01*
X111286457Y-146840021D01*
X111286457Y-146156627D01*
X111284521Y-146080510D01*
X111280421Y-146006789D01*
X111274159Y-145935464D01*
X111265735Y-145866536D01*
X111255147Y-145800003D01*
X111242398Y-145735867D01*
X111227486Y-145674126D01*
X111210412Y-145614782D01*
X111191175Y-145557834D01*
X111169776Y-145503282D01*
X111146214Y-145451126D01*
X111120490Y-145401366D01*
X111092604Y-145354003D01*
X111062555Y-145309036D01*
X111030344Y-145266464D01*
X110995971Y-145226289D01*
X110959436Y-145188510D01*
X110920738Y-145153127D01*
X110879879Y-145120141D01*
X110836857Y-145089550D01*
X110791673Y-145061355D01*
X110744327Y-145035557D01*
X110694819Y-145012155D01*
X110643148Y-144991149D01*
X110589316Y-144972539D01*
X110533321Y-144956325D01*
X110475165Y-144942507D01*
X110414847Y-144931086D01*
X110352366Y-144922060D01*
X110287724Y-144915431D01*
X110220920Y-144911198D01*
X110151954Y-144909361D01*
X107240568Y-144909361D01*
X107240568Y-144588173D01*
X110842222Y-144588173D01*
X110842222Y-143081242D01*
X107035550Y-143081242D01*
X106950407Y-143082577D01*
X106867966Y-143086582D01*
X106788229Y-143093257D01*
X106711194Y-143102602D01*
X106636862Y-143114616D01*
X106565232Y-143129301D01*
X106496306Y-143146655D01*
X106430082Y-143166679D01*
X106366562Y-143189372D01*
X106305744Y-143214736D01*
X106247629Y-143242769D01*
X106192217Y-143273471D01*
X106139508Y-143306843D01*
X106089502Y-143342885D01*
X106042199Y-143381596D01*
X105997599Y-143422977D01*
X105955701Y-143467027D01*
X105916507Y-143513746D01*
X105880016Y-143563135D01*
X105846227Y-143615193D01*
X105815142Y-143669921D01*
X105786760Y-143727317D01*
X105761080Y-143787383D01*
X105738104Y-143850118D01*
X105717831Y-143915523D01*
X105700261Y-143983596D01*
X105685394Y-144054339D01*
X105673230Y-144127750D01*
X105663769Y-144203831D01*
X105657011Y-144282581D01*
X105652956Y-144363999D01*
X105651605Y-144448087D01*
X104838411Y-144448087D01*
X104838411Y-143081242D01*
X101031739Y-143081242D01*
X100946596Y-143082577D01*
X100864155Y-143086582D01*
X100784418Y-143093257D01*
X100707383Y-143102602D01*
X100633051Y-143114616D01*
X100561421Y-143129301D01*
X100492495Y-143146655D01*
X100426272Y-143166679D01*
X100362751Y-143189372D01*
X100301933Y-143214736D01*
X100243818Y-143242769D01*
X100188406Y-143273471D01*
X100135697Y-143306843D01*
X100085691Y-143342885D01*
X100038388Y-143381596D01*
X99993788Y-143422977D01*
X99951890Y-143467027D01*
X99912696Y-143513746D01*
X99876205Y-143563135D01*
X99842416Y-143615193D01*
X99811331Y-143669921D01*
X99782949Y-143727317D01*
X99757269Y-143787383D01*
X99734293Y-143850118D01*
X99714020Y-143915523D01*
X99696450Y-143983596D01*
X99681583Y-144054339D01*
X99669419Y-144127750D01*
X99659958Y-144203831D01*
X99653200Y-144282581D01*
X99649145Y-144363999D01*
X99647794Y-144448087D01*
X99647794Y-145131480D01*
X99000000Y-145131480D01*
X99000000Y-144060932D01*
X99002150Y-143975937D01*
X99008527Y-143892057D01*
X99019030Y-143809398D01*
X99033555Y-143728062D01*
X99051997Y-143648153D01*
X99074253Y-143569775D01*
X99100219Y-143493032D01*
X99129791Y-143418028D01*
X99162866Y-143344866D01*
X99199339Y-143273650D01*
X99239108Y-143204485D01*
X99282068Y-143137472D01*
X99328116Y-143072718D01*
X99377147Y-143010324D01*
X99429058Y-142950395D01*
X99483745Y-142893036D01*
X99541105Y-142838348D01*
X99601034Y-142786437D01*
X99663428Y-142737406D01*
X99728182Y-142691358D01*
X99795195Y-142648398D01*
X99864360Y-142608629D01*
X99935576Y-142572156D01*
X100008738Y-142539081D01*
X100083742Y-142509509D01*
X100160485Y-142483543D01*
X100238863Y-142461287D01*
X100318772Y-142442845D01*
X100400108Y-142428320D01*
X100482768Y-142417817D01*
X100566647Y-142411439D01*
X100651643Y-142409290D01*
X122336600Y-142409290D01*
X122421595Y-142411439D01*
G37*
G36*
X121660752Y-144923053D02*
G01*
X119648061Y-144923053D01*
X119648061Y-144560850D01*
X121660752Y-144560850D01*
X121660752Y-144923053D01*
G37*
G36*
X116558617Y-149622517D02*
G01*
X115910215Y-149622517D01*
X115910215Y-149504885D01*
X116558617Y-149504885D01*
X116558617Y-149622517D01*
G37*
G36*
X115509979Y-144919646D02*
G01*
X113514388Y-144919646D01*
X113514388Y-144557442D01*
X115509979Y-144557442D01*
X115509979Y-144919646D01*
G37*
D11*
X128246080Y-148939379D02*
X129388937Y-148939379D01*
X128817508Y-150939379D02*
X128817508Y-148939379D01*
X130341318Y-150939379D02*
X130150842Y-150844141D01*
X130150842Y-150844141D02*
X130055604Y-150748902D01*
X130055604Y-150748902D02*
X129960366Y-150558426D01*
X129960366Y-150558426D02*
X129960366Y-149986998D01*
X129960366Y-149986998D02*
X130055604Y-149796521D01*
X130055604Y-149796521D02*
X130150842Y-149701283D01*
X130150842Y-149701283D02*
X130341318Y-149606045D01*
X130341318Y-149606045D02*
X130627033Y-149606045D01*
X130627033Y-149606045D02*
X130817509Y-149701283D01*
X130817509Y-149701283D02*
X130912747Y-149796521D01*
X130912747Y-149796521D02*
X131007985Y-149986998D01*
X131007985Y-149986998D02*
X131007985Y-150558426D01*
X131007985Y-150558426D02*
X130912747Y-150748902D01*
X130912747Y-150748902D02*
X130817509Y-150844141D01*
X130817509Y-150844141D02*
X130627033Y-150939379D01*
X130627033Y-150939379D02*
X130341318Y-150939379D01*
X131674652Y-149606045D02*
X132150842Y-150939379D01*
X132627033Y-149606045D02*
X132150842Y-150939379D01*
X132150842Y-150939379D02*
X131960366Y-151415569D01*
X131960366Y-151415569D02*
X131865128Y-151510807D01*
X131865128Y-151510807D02*
X131674652Y-151606045D01*
X133674652Y-150939379D02*
X133484176Y-150844141D01*
X133484176Y-150844141D02*
X133388938Y-150748902D01*
X133388938Y-150748902D02*
X133293700Y-150558426D01*
X133293700Y-150558426D02*
X133293700Y-149986998D01*
X133293700Y-149986998D02*
X133388938Y-149796521D01*
X133388938Y-149796521D02*
X133484176Y-149701283D01*
X133484176Y-149701283D02*
X133674652Y-149606045D01*
X133674652Y-149606045D02*
X133960367Y-149606045D01*
X133960367Y-149606045D02*
X134150843Y-149701283D01*
X134150843Y-149701283D02*
X134246081Y-149796521D01*
X134246081Y-149796521D02*
X134341319Y-149986998D01*
X134341319Y-149986998D02*
X134341319Y-150558426D01*
X134341319Y-150558426D02*
X134246081Y-150748902D01*
X134246081Y-150748902D02*
X134150843Y-150844141D01*
X134150843Y-150844141D02*
X133960367Y-150939379D01*
X133960367Y-150939379D02*
X133674652Y-150939379D01*
X134912748Y-149606045D02*
X135674652Y-149606045D01*
X135198462Y-148939379D02*
X135198462Y-150653664D01*
X135198462Y-150653664D02*
X135293700Y-150844141D01*
X135293700Y-150844141D02*
X135484176Y-150939379D01*
X135484176Y-150939379D02*
X135674652Y-150939379D01*
X137198462Y-150939379D02*
X137198462Y-149891760D01*
X137198462Y-149891760D02*
X137103224Y-149701283D01*
X137103224Y-149701283D02*
X136912748Y-149606045D01*
X136912748Y-149606045D02*
X136531795Y-149606045D01*
X136531795Y-149606045D02*
X136341319Y-149701283D01*
X137198462Y-150844141D02*
X137007986Y-150939379D01*
X137007986Y-150939379D02*
X136531795Y-150939379D01*
X136531795Y-150939379D02*
X136341319Y-150844141D01*
X136341319Y-150844141D02*
X136246081Y-150653664D01*
X136246081Y-150653664D02*
X136246081Y-150463188D01*
X136246081Y-150463188D02*
X136341319Y-150272712D01*
X136341319Y-150272712D02*
X136531795Y-150177474D01*
X136531795Y-150177474D02*
X137007986Y-150177474D01*
X137007986Y-150177474D02*
X137198462Y-150082236D01*
X140531796Y-149606045D02*
X140531796Y-150939379D01*
X140055605Y-148844141D02*
X139579415Y-150272712D01*
X139579415Y-150272712D02*
X140817510Y-150272712D01*
X141579415Y-149891760D02*
X142246082Y-149891760D01*
X142531796Y-150939379D02*
X141579415Y-150939379D01*
X141579415Y-150939379D02*
X141579415Y-148939379D01*
X141579415Y-148939379D02*
X142531796Y-148939379D01*
X144055606Y-149891760D02*
X143388939Y-149891760D01*
X143388939Y-150939379D02*
X143388939Y-148939379D01*
X143388939Y-148939379D02*
X144341320Y-148939379D01*
X145103225Y-149891760D02*
X145769892Y-149891760D01*
X146055606Y-150939379D02*
X145103225Y-150939379D01*
X145103225Y-150939379D02*
X145103225Y-148939379D01*
X145103225Y-148939379D02*
X146055606Y-148939379D01*
X148436559Y-150177474D02*
X149960369Y-150177474D01*
X152436559Y-150939379D02*
X152436559Y-148939379D01*
X152436559Y-148939379D02*
X153198464Y-148939379D01*
X153198464Y-148939379D02*
X153388940Y-149034617D01*
X153388940Y-149034617D02*
X153484178Y-149129855D01*
X153484178Y-149129855D02*
X153579416Y-149320331D01*
X153579416Y-149320331D02*
X153579416Y-149606045D01*
X153579416Y-149606045D02*
X153484178Y-149796521D01*
X153484178Y-149796521D02*
X153388940Y-149891760D01*
X153388940Y-149891760D02*
X153198464Y-149986998D01*
X153198464Y-149986998D02*
X152436559Y-149986998D01*
X154436559Y-150939379D02*
X154436559Y-149606045D01*
X154436559Y-149986998D02*
X154531797Y-149796521D01*
X154531797Y-149796521D02*
X154627035Y-149701283D01*
X154627035Y-149701283D02*
X154817511Y-149606045D01*
X154817511Y-149606045D02*
X155007988Y-149606045D01*
X155960368Y-150939379D02*
X155769892Y-150844141D01*
X155769892Y-150844141D02*
X155674654Y-150748902D01*
X155674654Y-150748902D02*
X155579416Y-150558426D01*
X155579416Y-150558426D02*
X155579416Y-149986998D01*
X155579416Y-149986998D02*
X155674654Y-149796521D01*
X155674654Y-149796521D02*
X155769892Y-149701283D01*
X155769892Y-149701283D02*
X155960368Y-149606045D01*
X155960368Y-149606045D02*
X156246083Y-149606045D01*
X156246083Y-149606045D02*
X156436559Y-149701283D01*
X156436559Y-149701283D02*
X156531797Y-149796521D01*
X156531797Y-149796521D02*
X156627035Y-149986998D01*
X156627035Y-149986998D02*
X156627035Y-150558426D01*
X156627035Y-150558426D02*
X156531797Y-150748902D01*
X156531797Y-150748902D02*
X156436559Y-150844141D01*
X156436559Y-150844141D02*
X156246083Y-150939379D01*
X156246083Y-150939379D02*
X155960368Y-150939379D01*
X157198464Y-149606045D02*
X157960368Y-149606045D01*
X157484178Y-148939379D02*
X157484178Y-150653664D01*
X157484178Y-150653664D02*
X157579416Y-150844141D01*
X157579416Y-150844141D02*
X157769892Y-150939379D01*
X157769892Y-150939379D02*
X157960368Y-150939379D01*
X158912749Y-150939379D02*
X158722273Y-150844141D01*
X158722273Y-150844141D02*
X158627035Y-150748902D01*
X158627035Y-150748902D02*
X158531797Y-150558426D01*
X158531797Y-150558426D02*
X158531797Y-149986998D01*
X158531797Y-149986998D02*
X158627035Y-149796521D01*
X158627035Y-149796521D02*
X158722273Y-149701283D01*
X158722273Y-149701283D02*
X158912749Y-149606045D01*
X158912749Y-149606045D02*
X159198464Y-149606045D01*
X159198464Y-149606045D02*
X159388940Y-149701283D01*
X159388940Y-149701283D02*
X159484178Y-149796521D01*
X159484178Y-149796521D02*
X159579416Y-149986998D01*
X159579416Y-149986998D02*
X159579416Y-150558426D01*
X159579416Y-150558426D02*
X159484178Y-150748902D01*
X159484178Y-150748902D02*
X159388940Y-150844141D01*
X159388940Y-150844141D02*
X159198464Y-150939379D01*
X159198464Y-150939379D02*
X158912749Y-150939379D01*
X160150845Y-149606045D02*
X160912749Y-149606045D01*
X160436559Y-148939379D02*
X160436559Y-150653664D01*
X160436559Y-150653664D02*
X160531797Y-150844141D01*
X160531797Y-150844141D02*
X160722273Y-150939379D01*
X160722273Y-150939379D02*
X160912749Y-150939379D01*
X161388940Y-149606045D02*
X161865130Y-150939379D01*
X162341321Y-149606045D02*
X161865130Y-150939379D01*
X161865130Y-150939379D02*
X161674654Y-151415569D01*
X161674654Y-151415569D02*
X161579416Y-151510807D01*
X161579416Y-151510807D02*
X161388940Y-151606045D01*
X163103226Y-149606045D02*
X163103226Y-151606045D01*
X163103226Y-149701283D02*
X163293702Y-149606045D01*
X163293702Y-149606045D02*
X163674655Y-149606045D01*
X163674655Y-149606045D02*
X163865131Y-149701283D01*
X163865131Y-149701283D02*
X163960369Y-149796521D01*
X163960369Y-149796521D02*
X164055607Y-149986998D01*
X164055607Y-149986998D02*
X164055607Y-150558426D01*
X164055607Y-150558426D02*
X163960369Y-150748902D01*
X163960369Y-150748902D02*
X163865131Y-150844141D01*
X163865131Y-150844141D02*
X163674655Y-150939379D01*
X163674655Y-150939379D02*
X163293702Y-150939379D01*
X163293702Y-150939379D02*
X163103226Y-150844141D01*
X165674655Y-150844141D02*
X165484179Y-150939379D01*
X165484179Y-150939379D02*
X165103226Y-150939379D01*
X165103226Y-150939379D02*
X164912750Y-150844141D01*
X164912750Y-150844141D02*
X164817512Y-150653664D01*
X164817512Y-150653664D02*
X164817512Y-149891760D01*
X164817512Y-149891760D02*
X164912750Y-149701283D01*
X164912750Y-149701283D02*
X165103226Y-149606045D01*
X165103226Y-149606045D02*
X165484179Y-149606045D01*
X165484179Y-149606045D02*
X165674655Y-149701283D01*
X165674655Y-149701283D02*
X165769893Y-149891760D01*
X165769893Y-149891760D02*
X165769893Y-150082236D01*
X165769893Y-150082236D02*
X164817512Y-150272712D01*
X167865132Y-148939379D02*
X168531798Y-150939379D01*
X168531798Y-150939379D02*
X169198465Y-148939379D01*
X170912751Y-150939379D02*
X169769894Y-150939379D01*
X170341322Y-150939379D02*
X170341322Y-148939379D01*
X170341322Y-148939379D02*
X170150846Y-149225093D01*
X170150846Y-149225093D02*
X169960370Y-149415569D01*
X169960370Y-149415569D02*
X169769894Y-149510807D01*
X171769894Y-150748902D02*
X171865132Y-150844141D01*
X171865132Y-150844141D02*
X171769894Y-150939379D01*
X171769894Y-150939379D02*
X171674656Y-150844141D01*
X171674656Y-150844141D02*
X171769894Y-150748902D01*
X171769894Y-150748902D02*
X171769894Y-150939379D01*
X173103227Y-148939379D02*
X173293704Y-148939379D01*
X173293704Y-148939379D02*
X173484180Y-149034617D01*
X173484180Y-149034617D02*
X173579418Y-149129855D01*
X173579418Y-149129855D02*
X173674656Y-149320331D01*
X173674656Y-149320331D02*
X173769894Y-149701283D01*
X173769894Y-149701283D02*
X173769894Y-150177474D01*
X173769894Y-150177474D02*
X173674656Y-150558426D01*
X173674656Y-150558426D02*
X173579418Y-150748902D01*
X173579418Y-150748902D02*
X173484180Y-150844141D01*
X173484180Y-150844141D02*
X173293704Y-150939379D01*
X173293704Y-150939379D02*
X173103227Y-150939379D01*
X173103227Y-150939379D02*
X172912751Y-150844141D01*
X172912751Y-150844141D02*
X172817513Y-150748902D01*
X172817513Y-150748902D02*
X172722275Y-150558426D01*
X172722275Y-150558426D02*
X172627037Y-150177474D01*
X172627037Y-150177474D02*
X172627037Y-149701283D01*
X172627037Y-149701283D02*
X172722275Y-149320331D01*
X172722275Y-149320331D02*
X172817513Y-149129855D01*
X172817513Y-149129855D02*
X172912751Y-149034617D01*
X172912751Y-149034617D02*
X173103227Y-148939379D01*
D12*
X148632998Y-40115012D02*
X149540141Y-40115012D01*
X149540141Y-40115012D02*
X149721569Y-40175489D01*
X149721569Y-40175489D02*
X149842522Y-40296441D01*
X149842522Y-40296441D02*
X149902998Y-40477870D01*
X149902998Y-40477870D02*
X149902998Y-40598822D01*
X149902998Y-38845012D02*
X149902998Y-39570727D01*
X149902998Y-39207870D02*
X148632998Y-39207870D01*
X148632998Y-39207870D02*
X148814426Y-39328822D01*
X148814426Y-39328822D02*
X148935379Y-39449774D01*
X148935379Y-39449774D02*
X148995855Y-39570727D01*
D13*
%TO.C,J1*%
X116878680Y-53428680D02*
X116878680Y-53428680D01*
X116878680Y-53328680D02*
X116878680Y-53328680D01*
D14*
X113278680Y-45028680D02*
X113278680Y-26528680D01*
X185378680Y-45028680D02*
X113278680Y-45028680D01*
X113278680Y-26528680D02*
X185378680Y-26528680D01*
X185378680Y-26528680D02*
X185378680Y-45028680D01*
D13*
X116878680Y-53328680D02*
G75*
G03*
X116878680Y-53428680I0J-50000D01*
G01*
X116878680Y-53428680D02*
G75*
G03*
X116878680Y-53328680I0J50000D01*
G01*
%TD*%
M02*
