%TF.GenerationSoftware,KiCad,Pcbnew,7.0.7*%
%TF.CreationDate,2024-09-30T22:56:21+02:00*%
%TF.ProjectId,SSRP4EFE,53535250-3445-4464-952e-6b696361645f,rev?*%
%TF.SameCoordinates,Original*%
%TF.FileFunction,Profile,NP*%
%FSLAX46Y46*%
G04 Gerber Fmt 4.6, Leading zero omitted, Abs format (unit mm)*
G04 Created by KiCad (PCBNEW 7.0.7) date 2024-09-30 22:56:21*
%MOMM*%
%LPD*%
G01*
G04 APERTURE LIST*
%TA.AperFunction,Profile*%
%ADD10C,0.050000*%
%TD*%
G04 APERTURE END LIST*
D10*
X79728680Y-143528680D02*
X74728680Y-143528680D01*
X218728680Y-143528680D02*
G75*
G03*
X215728680Y-146528680I20J-3000020D01*
G01*
X82728620Y-146528680D02*
G75*
G03*
X79728680Y-143528680I-2999920J80D01*
G01*
X212728680Y-154528680D02*
X85728680Y-154528680D01*
X74728680Y-40928680D02*
X79728680Y-40928680D01*
X215728620Y-35528680D02*
G75*
G03*
X214728680Y-34528680I-999920J80D01*
G01*
X74728680Y-40928680D02*
G75*
G03*
X71728680Y-43928680I20J-3000020D01*
G01*
X79728680Y-40928680D02*
G75*
G03*
X82728680Y-37928680I20J2999980D01*
G01*
X215728680Y-146528680D02*
X215728680Y-151528680D01*
X212728680Y-154528680D02*
G75*
G03*
X215728680Y-151528680I20J2999980D01*
G01*
X71728620Y-140528680D02*
G75*
G03*
X74728680Y-143528680I3000080J80D01*
G01*
X218728680Y-40928680D02*
X223728680Y-40928680D01*
X226728620Y-43928680D02*
G75*
G03*
X223728680Y-40928680I-2999920J80D01*
G01*
X83728680Y-34528680D02*
X214728680Y-34528680D01*
X215728680Y-35528680D02*
X215728680Y-37928680D01*
X82728680Y-151528680D02*
X82728680Y-146528680D01*
X82728680Y-37928680D02*
X82728680Y-35528680D01*
X215728620Y-37928680D02*
G75*
G03*
X218728680Y-40928680I3000080J80D01*
G01*
X83728680Y-34528680D02*
G75*
G03*
X82728680Y-35528680I20J-1000020D01*
G01*
X223728680Y-143528680D02*
G75*
G03*
X226728680Y-140528680I20J2999980D01*
G01*
X226728680Y-43928680D02*
X226728680Y-140528680D01*
X71728680Y-140528680D02*
X71728680Y-43928680D01*
X223728680Y-143528680D02*
X218728680Y-143528680D01*
X82728620Y-151528680D02*
G75*
G03*
X85728680Y-154528680I3000080J80D01*
G01*
M02*
