%TF.GenerationSoftware,KiCad,Pcbnew,7.0.7*%
%TF.CreationDate,2024-09-30T22:56:24+02:00*%
%TF.ProjectId,SSRP4EFE,53535250-3445-4464-952e-6b696361645f,rev?*%
%TF.SameCoordinates,Original*%
%TF.FileFunction,Drillmap*%
%TF.FilePolarity,Positive*%
%FSLAX45Y45*%
G04 Gerber Fmt 4.5, Leading zero omitted, Abs format (unit mm)*
G04 Created by KiCad (PCBNEW 7.0.7) date 2024-09-30 22:56:24*
%MOMM*%
%LPD*%
G01*
G04 APERTURE LIST*
%ADD10C,0.050000*%
%ADD11C,0.200000*%
%ADD12C,0.110000*%
%ADD13C,0.350000*%
G04 APERTURE END LIST*
D10*
X7972868Y-14352868D02*
X7472868Y-14352868D01*
X21872868Y-14352868D02*
G75*
G03*
X21572868Y-14652868I2J-300002D01*
G01*
X8272862Y-14652868D02*
G75*
G03*
X7972868Y-14352868I-299992J8D01*
G01*
X21272868Y-15452868D02*
X8572868Y-15452868D01*
X7472868Y-4092868D02*
X7972868Y-4092868D01*
X21572862Y-3552868D02*
G75*
G03*
X21472868Y-3452868I-99992J8D01*
G01*
X7472868Y-4092868D02*
G75*
G03*
X7172868Y-4392868I2J-300002D01*
G01*
X7972868Y-4092868D02*
G75*
G03*
X8272868Y-3792868I2J299998D01*
G01*
X21572868Y-14652868D02*
X21572868Y-15152868D01*
X21272868Y-15452868D02*
G75*
G03*
X21572868Y-15152868I2J299998D01*
G01*
X7172862Y-14052868D02*
G75*
G03*
X7472868Y-14352868I300008J8D01*
G01*
X21872868Y-4092868D02*
X22372868Y-4092868D01*
X22672862Y-4392868D02*
G75*
G03*
X22372868Y-4092868I-299992J8D01*
G01*
X8372868Y-3452868D02*
X21472868Y-3452868D01*
X21572868Y-3552868D02*
X21572868Y-3792868D01*
X8272868Y-15152868D02*
X8272868Y-14652868D01*
X8272868Y-3792868D02*
X8272868Y-3552868D01*
X21572862Y-3792868D02*
G75*
G03*
X21872868Y-4092868I300008J8D01*
G01*
X8372868Y-3452868D02*
G75*
G03*
X8272868Y-3552868I2J-100002D01*
G01*
X22372868Y-14352868D02*
G75*
G03*
X22672868Y-14052868I2J299998D01*
G01*
X22672868Y-4392868D02*
X22672868Y-14052868D01*
X7172868Y-14052868D02*
X7172868Y-4392868D01*
X22372868Y-14352868D02*
X21872868Y-14352868D01*
X8272862Y-15152868D02*
G75*
G03*
X8572868Y-15452868I300008J8D01*
G01*
D11*
D12*
X11632868Y-4697868D02*
X11742868Y-4807868D01*
X11742868Y-4697868D02*
X11632868Y-4807868D01*
X11632868Y-5147868D02*
X11742868Y-5257868D01*
X11742868Y-5147868D02*
X11632868Y-5257868D01*
X11932868Y-4697868D02*
X12042868Y-4807868D01*
X12042868Y-4697868D02*
X11932868Y-4807868D01*
X11932868Y-5147868D02*
X12042868Y-5257868D01*
X12042868Y-5147868D02*
X11932868Y-5257868D01*
X12232868Y-4697868D02*
X12342868Y-4807868D01*
X12342868Y-4697868D02*
X12232868Y-4807868D01*
X12232868Y-5147868D02*
X12342868Y-5257868D01*
X12342868Y-5147868D02*
X12232868Y-5257868D01*
X12532868Y-4697868D02*
X12642868Y-4807868D01*
X12642868Y-4697868D02*
X12532868Y-4807868D01*
X12532868Y-5147868D02*
X12642868Y-5257868D01*
X12642868Y-5147868D02*
X12532868Y-5257868D01*
X12832868Y-4697868D02*
X12942868Y-4807868D01*
X12942868Y-4697868D02*
X12832868Y-4807868D01*
X12832868Y-5147868D02*
X12942868Y-5257868D01*
X12942868Y-5147868D02*
X12832868Y-5257868D01*
X13132868Y-4697868D02*
X13242868Y-4807868D01*
X13242868Y-4697868D02*
X13132868Y-4807868D01*
X13132868Y-5147868D02*
X13242868Y-5257868D01*
X13242868Y-5147868D02*
X13132868Y-5257868D01*
X13432868Y-4697868D02*
X13542868Y-4807868D01*
X13542868Y-4697868D02*
X13432868Y-4807868D01*
X13432868Y-5147868D02*
X13542868Y-5257868D01*
X13542868Y-5147868D02*
X13432868Y-5257868D01*
X13732868Y-4697868D02*
X13842868Y-4807868D01*
X13842868Y-4697868D02*
X13732868Y-4807868D01*
X13732868Y-5147868D02*
X13842868Y-5257868D01*
X13842868Y-5147868D02*
X13732868Y-5257868D01*
X14327868Y-4697868D02*
X14437868Y-4807868D01*
X14437868Y-4697868D02*
X14327868Y-4807868D01*
X14332868Y-5147868D02*
X14442868Y-5257868D01*
X14442868Y-5147868D02*
X14332868Y-5257868D01*
X14677868Y-4697868D02*
X14787868Y-4807868D01*
X14787868Y-4697868D02*
X14677868Y-4807868D01*
X14677868Y-5147868D02*
X14787868Y-5257868D01*
X14787868Y-5147868D02*
X14677868Y-5257868D01*
X14987868Y-4697868D02*
X15097868Y-4807868D01*
X15097868Y-4697868D02*
X14987868Y-4807868D01*
X14987868Y-5147868D02*
X15097868Y-5257868D01*
X15097868Y-5147868D02*
X14987868Y-5257868D01*
X15287868Y-4697868D02*
X15397868Y-4807868D01*
X15397868Y-4697868D02*
X15287868Y-4807868D01*
X15287868Y-5147868D02*
X15397868Y-5257868D01*
X15397868Y-5147868D02*
X15287868Y-5257868D01*
X15587868Y-4697868D02*
X15697868Y-4807868D01*
X15697868Y-4697868D02*
X15587868Y-4807868D01*
X15587868Y-5147868D02*
X15697868Y-5257868D01*
X15697868Y-5147868D02*
X15587868Y-5257868D01*
X15887868Y-4697868D02*
X15997868Y-4807868D01*
X15997868Y-4697868D02*
X15887868Y-4807868D01*
X15887868Y-5147868D02*
X15997868Y-5257868D01*
X15997868Y-5147868D02*
X15887868Y-5257868D01*
X16187868Y-4697868D02*
X16297868Y-4807868D01*
X16297868Y-4697868D02*
X16187868Y-4807868D01*
X16187868Y-5147868D02*
X16297868Y-5257868D01*
X16297868Y-5147868D02*
X16187868Y-5257868D01*
X16487868Y-4697868D02*
X16597868Y-4807868D01*
X16597868Y-4697868D02*
X16487868Y-4807868D01*
X16487868Y-5147868D02*
X16597868Y-5257868D01*
X16597868Y-5147868D02*
X16487868Y-5257868D01*
X16787868Y-4697868D02*
X16897868Y-4807868D01*
X16897868Y-4697868D02*
X16787868Y-4807868D01*
X16787868Y-5147868D02*
X16897868Y-5257868D01*
X16897868Y-5147868D02*
X16787868Y-5257868D01*
X17087868Y-4697868D02*
X17197868Y-4807868D01*
X17197868Y-4697868D02*
X17087868Y-4807868D01*
X17087868Y-5147868D02*
X17197868Y-5257868D01*
X17197868Y-5147868D02*
X17087868Y-5257868D01*
X17397868Y-4697868D02*
X17507868Y-4807868D01*
X17507868Y-4697868D02*
X17397868Y-4807868D01*
X17397868Y-5147868D02*
X17507868Y-5257868D01*
X17507868Y-5147868D02*
X17397868Y-5257868D01*
X17747868Y-4697868D02*
X17857868Y-4807868D01*
X17857868Y-4697868D02*
X17747868Y-4807868D01*
X17747868Y-5147868D02*
X17857868Y-5257868D01*
X17857868Y-5147868D02*
X17747868Y-5257868D01*
X18097868Y-4697868D02*
X18207868Y-4807868D01*
X18207868Y-4697868D02*
X18097868Y-4807868D01*
X18097868Y-5147868D02*
X18207868Y-5257868D01*
X18207868Y-5147868D02*
X18097868Y-5257868D01*
D13*
X11822868Y-4182868D02*
G75*
G03*
X11822868Y-4182868I-175000J0D01*
G01*
X14247868Y-4182868D02*
G75*
G03*
X14247868Y-4182868I-175000J0D01*
G01*
X18392868Y-4182868D02*
G75*
G03*
X18392868Y-4182868I-175000J0D01*
G01*
D11*
X7431145Y-15766852D02*
X7431145Y-15566852D01*
X7431145Y-15566852D02*
X7478764Y-15566852D01*
X7478764Y-15566852D02*
X7507335Y-15576376D01*
X7507335Y-15576376D02*
X7526383Y-15595423D01*
X7526383Y-15595423D02*
X7535907Y-15614471D01*
X7535907Y-15614471D02*
X7545430Y-15652566D01*
X7545430Y-15652566D02*
X7545430Y-15681137D01*
X7545430Y-15681137D02*
X7535907Y-15719233D01*
X7535907Y-15719233D02*
X7526383Y-15738280D01*
X7526383Y-15738280D02*
X7507335Y-15757328D01*
X7507335Y-15757328D02*
X7478764Y-15766852D01*
X7478764Y-15766852D02*
X7431145Y-15766852D01*
X7631145Y-15766852D02*
X7631145Y-15633518D01*
X7631145Y-15671614D02*
X7640669Y-15652566D01*
X7640669Y-15652566D02*
X7650192Y-15643042D01*
X7650192Y-15643042D02*
X7669240Y-15633518D01*
X7669240Y-15633518D02*
X7688288Y-15633518D01*
X7754954Y-15766852D02*
X7754954Y-15633518D01*
X7754954Y-15566852D02*
X7745430Y-15576376D01*
X7745430Y-15576376D02*
X7754954Y-15585899D01*
X7754954Y-15585899D02*
X7764478Y-15576376D01*
X7764478Y-15576376D02*
X7754954Y-15566852D01*
X7754954Y-15566852D02*
X7754954Y-15585899D01*
X7878764Y-15766852D02*
X7859716Y-15757328D01*
X7859716Y-15757328D02*
X7850192Y-15738280D01*
X7850192Y-15738280D02*
X7850192Y-15566852D01*
X7983526Y-15766852D02*
X7964478Y-15757328D01*
X7964478Y-15757328D02*
X7954954Y-15738280D01*
X7954954Y-15738280D02*
X7954954Y-15566852D01*
X8212097Y-15766852D02*
X8212097Y-15566852D01*
X8212097Y-15566852D02*
X8278764Y-15709709D01*
X8278764Y-15709709D02*
X8345430Y-15566852D01*
X8345430Y-15566852D02*
X8345430Y-15766852D01*
X8526383Y-15766852D02*
X8526383Y-15662090D01*
X8526383Y-15662090D02*
X8516859Y-15643042D01*
X8516859Y-15643042D02*
X8497812Y-15633518D01*
X8497812Y-15633518D02*
X8459716Y-15633518D01*
X8459716Y-15633518D02*
X8440669Y-15643042D01*
X8526383Y-15757328D02*
X8507335Y-15766852D01*
X8507335Y-15766852D02*
X8459716Y-15766852D01*
X8459716Y-15766852D02*
X8440669Y-15757328D01*
X8440669Y-15757328D02*
X8431145Y-15738280D01*
X8431145Y-15738280D02*
X8431145Y-15719233D01*
X8431145Y-15719233D02*
X8440669Y-15700185D01*
X8440669Y-15700185D02*
X8459716Y-15690661D01*
X8459716Y-15690661D02*
X8507335Y-15690661D01*
X8507335Y-15690661D02*
X8526383Y-15681137D01*
X8621621Y-15633518D02*
X8621621Y-15833518D01*
X8621621Y-15643042D02*
X8640669Y-15633518D01*
X8640669Y-15633518D02*
X8678764Y-15633518D01*
X8678764Y-15633518D02*
X8697812Y-15643042D01*
X8697812Y-15643042D02*
X8707335Y-15652566D01*
X8707335Y-15652566D02*
X8716859Y-15671614D01*
X8716859Y-15671614D02*
X8716859Y-15728756D01*
X8716859Y-15728756D02*
X8707335Y-15747804D01*
X8707335Y-15747804D02*
X8697812Y-15757328D01*
X8697812Y-15757328D02*
X8678764Y-15766852D01*
X8678764Y-15766852D02*
X8640669Y-15766852D01*
X8640669Y-15766852D02*
X8621621Y-15757328D01*
X8802573Y-15747804D02*
X8812097Y-15757328D01*
X8812097Y-15757328D02*
X8802573Y-15766852D01*
X8802573Y-15766852D02*
X8793050Y-15757328D01*
X8793050Y-15757328D02*
X8802573Y-15747804D01*
X8802573Y-15747804D02*
X8802573Y-15766852D01*
X8802573Y-15643042D02*
X8812097Y-15652566D01*
X8812097Y-15652566D02*
X8802573Y-15662090D01*
X8802573Y-15662090D02*
X8793050Y-15652566D01*
X8793050Y-15652566D02*
X8802573Y-15643042D01*
X8802573Y-15643042D02*
X8802573Y-15662090D01*
D12*
X7060368Y-16040368D02*
X7170368Y-16150368D01*
X7170368Y-16040368D02*
X7060368Y-16150368D01*
D11*
X7535907Y-16186852D02*
X7421621Y-16186852D01*
X7478764Y-16186852D02*
X7478764Y-15986852D01*
X7478764Y-15986852D02*
X7459716Y-16015423D01*
X7459716Y-16015423D02*
X7440669Y-16034471D01*
X7440669Y-16034471D02*
X7421621Y-16043995D01*
X7621621Y-16167804D02*
X7631145Y-16177328D01*
X7631145Y-16177328D02*
X7621621Y-16186852D01*
X7621621Y-16186852D02*
X7612097Y-16177328D01*
X7612097Y-16177328D02*
X7621621Y-16167804D01*
X7621621Y-16167804D02*
X7621621Y-16186852D01*
X7821621Y-16186852D02*
X7707335Y-16186852D01*
X7764478Y-16186852D02*
X7764478Y-15986852D01*
X7764478Y-15986852D02*
X7745430Y-16015423D01*
X7745430Y-16015423D02*
X7726383Y-16034471D01*
X7726383Y-16034471D02*
X7707335Y-16043995D01*
X7945430Y-15986852D02*
X7964478Y-15986852D01*
X7964478Y-15986852D02*
X7983526Y-15996376D01*
X7983526Y-15996376D02*
X7993050Y-16005899D01*
X7993050Y-16005899D02*
X8002573Y-16024947D01*
X8002573Y-16024947D02*
X8012097Y-16063042D01*
X8012097Y-16063042D02*
X8012097Y-16110661D01*
X8012097Y-16110661D02*
X8002573Y-16148756D01*
X8002573Y-16148756D02*
X7993050Y-16167804D01*
X7993050Y-16167804D02*
X7983526Y-16177328D01*
X7983526Y-16177328D02*
X7964478Y-16186852D01*
X7964478Y-16186852D02*
X7945430Y-16186852D01*
X7945430Y-16186852D02*
X7926383Y-16177328D01*
X7926383Y-16177328D02*
X7916859Y-16167804D01*
X7916859Y-16167804D02*
X7907335Y-16148756D01*
X7907335Y-16148756D02*
X7897811Y-16110661D01*
X7897811Y-16110661D02*
X7897811Y-16063042D01*
X7897811Y-16063042D02*
X7907335Y-16024947D01*
X7907335Y-16024947D02*
X7916859Y-16005899D01*
X7916859Y-16005899D02*
X7926383Y-15996376D01*
X7926383Y-15996376D02*
X7945430Y-15986852D01*
X8135907Y-15986852D02*
X8154954Y-15986852D01*
X8154954Y-15986852D02*
X8174002Y-15996376D01*
X8174002Y-15996376D02*
X8183526Y-16005899D01*
X8183526Y-16005899D02*
X8193050Y-16024947D01*
X8193050Y-16024947D02*
X8202573Y-16063042D01*
X8202573Y-16063042D02*
X8202573Y-16110661D01*
X8202573Y-16110661D02*
X8193050Y-16148756D01*
X8193050Y-16148756D02*
X8183526Y-16167804D01*
X8183526Y-16167804D02*
X8174002Y-16177328D01*
X8174002Y-16177328D02*
X8154954Y-16186852D01*
X8154954Y-16186852D02*
X8135907Y-16186852D01*
X8135907Y-16186852D02*
X8116859Y-16177328D01*
X8116859Y-16177328D02*
X8107335Y-16167804D01*
X8107335Y-16167804D02*
X8097811Y-16148756D01*
X8097811Y-16148756D02*
X8088288Y-16110661D01*
X8088288Y-16110661D02*
X8088288Y-16063042D01*
X8088288Y-16063042D02*
X8097811Y-16024947D01*
X8097811Y-16024947D02*
X8107335Y-16005899D01*
X8107335Y-16005899D02*
X8116859Y-15996376D01*
X8116859Y-15996376D02*
X8135907Y-15986852D01*
X8288288Y-16186852D02*
X8288288Y-16053518D01*
X8288288Y-16072566D02*
X8297811Y-16063042D01*
X8297811Y-16063042D02*
X8316859Y-16053518D01*
X8316859Y-16053518D02*
X8345431Y-16053518D01*
X8345431Y-16053518D02*
X8364478Y-16063042D01*
X8364478Y-16063042D02*
X8374002Y-16082090D01*
X8374002Y-16082090D02*
X8374002Y-16186852D01*
X8374002Y-16082090D02*
X8383526Y-16063042D01*
X8383526Y-16063042D02*
X8402573Y-16053518D01*
X8402573Y-16053518D02*
X8431145Y-16053518D01*
X8431145Y-16053518D02*
X8450193Y-16063042D01*
X8450193Y-16063042D02*
X8459716Y-16082090D01*
X8459716Y-16082090D02*
X8459716Y-16186852D01*
X8554954Y-16186852D02*
X8554954Y-16053518D01*
X8554954Y-16072566D02*
X8564478Y-16063042D01*
X8564478Y-16063042D02*
X8583526Y-16053518D01*
X8583526Y-16053518D02*
X8612097Y-16053518D01*
X8612097Y-16053518D02*
X8631145Y-16063042D01*
X8631145Y-16063042D02*
X8640669Y-16082090D01*
X8640669Y-16082090D02*
X8640669Y-16186852D01*
X8640669Y-16082090D02*
X8650193Y-16063042D01*
X8650193Y-16063042D02*
X8669240Y-16053518D01*
X8669240Y-16053518D02*
X8697812Y-16053518D01*
X8697812Y-16053518D02*
X8716859Y-16063042D01*
X8716859Y-16063042D02*
X8726383Y-16082090D01*
X8726383Y-16082090D02*
X8726383Y-16186852D01*
X9116859Y-15977328D02*
X8945431Y-16234471D01*
X9374002Y-15986852D02*
X9393050Y-15986852D01*
X9393050Y-15986852D02*
X9412097Y-15996376D01*
X9412097Y-15996376D02*
X9421621Y-16005899D01*
X9421621Y-16005899D02*
X9431145Y-16024947D01*
X9431145Y-16024947D02*
X9440669Y-16063042D01*
X9440669Y-16063042D02*
X9440669Y-16110661D01*
X9440669Y-16110661D02*
X9431145Y-16148756D01*
X9431145Y-16148756D02*
X9421621Y-16167804D01*
X9421621Y-16167804D02*
X9412097Y-16177328D01*
X9412097Y-16177328D02*
X9393050Y-16186852D01*
X9393050Y-16186852D02*
X9374002Y-16186852D01*
X9374002Y-16186852D02*
X9354955Y-16177328D01*
X9354955Y-16177328D02*
X9345431Y-16167804D01*
X9345431Y-16167804D02*
X9335907Y-16148756D01*
X9335907Y-16148756D02*
X9326383Y-16110661D01*
X9326383Y-16110661D02*
X9326383Y-16063042D01*
X9326383Y-16063042D02*
X9335907Y-16024947D01*
X9335907Y-16024947D02*
X9345431Y-16005899D01*
X9345431Y-16005899D02*
X9354955Y-15996376D01*
X9354955Y-15996376D02*
X9374002Y-15986852D01*
X9526383Y-16167804D02*
X9535907Y-16177328D01*
X9535907Y-16177328D02*
X9526383Y-16186852D01*
X9526383Y-16186852D02*
X9516859Y-16177328D01*
X9516859Y-16177328D02*
X9526383Y-16167804D01*
X9526383Y-16167804D02*
X9526383Y-16186852D01*
X9659716Y-15986852D02*
X9678764Y-15986852D01*
X9678764Y-15986852D02*
X9697812Y-15996376D01*
X9697812Y-15996376D02*
X9707336Y-16005899D01*
X9707336Y-16005899D02*
X9716859Y-16024947D01*
X9716859Y-16024947D02*
X9726383Y-16063042D01*
X9726383Y-16063042D02*
X9726383Y-16110661D01*
X9726383Y-16110661D02*
X9716859Y-16148756D01*
X9716859Y-16148756D02*
X9707336Y-16167804D01*
X9707336Y-16167804D02*
X9697812Y-16177328D01*
X9697812Y-16177328D02*
X9678764Y-16186852D01*
X9678764Y-16186852D02*
X9659716Y-16186852D01*
X9659716Y-16186852D02*
X9640669Y-16177328D01*
X9640669Y-16177328D02*
X9631145Y-16167804D01*
X9631145Y-16167804D02*
X9621621Y-16148756D01*
X9621621Y-16148756D02*
X9612097Y-16110661D01*
X9612097Y-16110661D02*
X9612097Y-16063042D01*
X9612097Y-16063042D02*
X9621621Y-16024947D01*
X9621621Y-16024947D02*
X9631145Y-16005899D01*
X9631145Y-16005899D02*
X9640669Y-15996376D01*
X9640669Y-15996376D02*
X9659716Y-15986852D01*
X9897812Y-16053518D02*
X9897812Y-16186852D01*
X9850193Y-15977328D02*
X9802574Y-16120185D01*
X9802574Y-16120185D02*
X9926383Y-16120185D01*
X9983526Y-15986852D02*
X10107336Y-15986852D01*
X10107336Y-15986852D02*
X10040669Y-16063042D01*
X10040669Y-16063042D02*
X10069240Y-16063042D01*
X10069240Y-16063042D02*
X10088288Y-16072566D01*
X10088288Y-16072566D02*
X10097812Y-16082090D01*
X10097812Y-16082090D02*
X10107336Y-16101137D01*
X10107336Y-16101137D02*
X10107336Y-16148756D01*
X10107336Y-16148756D02*
X10097812Y-16167804D01*
X10097812Y-16167804D02*
X10088288Y-16177328D01*
X10088288Y-16177328D02*
X10069240Y-16186852D01*
X10069240Y-16186852D02*
X10012097Y-16186852D01*
X10012097Y-16186852D02*
X9993050Y-16177328D01*
X9993050Y-16177328D02*
X9983526Y-16167804D01*
X10174002Y-15986852D02*
X10297812Y-15986852D01*
X10297812Y-15986852D02*
X10231145Y-16063042D01*
X10231145Y-16063042D02*
X10259717Y-16063042D01*
X10259717Y-16063042D02*
X10278764Y-16072566D01*
X10278764Y-16072566D02*
X10288288Y-16082090D01*
X10288288Y-16082090D02*
X10297812Y-16101137D01*
X10297812Y-16101137D02*
X10297812Y-16148756D01*
X10297812Y-16148756D02*
X10288288Y-16167804D01*
X10288288Y-16167804D02*
X10278764Y-16177328D01*
X10278764Y-16177328D02*
X10259717Y-16186852D01*
X10259717Y-16186852D02*
X10202574Y-16186852D01*
X10202574Y-16186852D02*
X10183526Y-16177328D01*
X10183526Y-16177328D02*
X10174002Y-16167804D01*
X10374002Y-15986852D02*
X10374002Y-16024947D01*
X10450193Y-15986852D02*
X10450193Y-16024947D01*
X10745431Y-16263042D02*
X10735907Y-16253518D01*
X10735907Y-16253518D02*
X10716859Y-16224947D01*
X10716859Y-16224947D02*
X10707336Y-16205899D01*
X10707336Y-16205899D02*
X10697812Y-16177328D01*
X10697812Y-16177328D02*
X10688288Y-16129709D01*
X10688288Y-16129709D02*
X10688288Y-16091614D01*
X10688288Y-16091614D02*
X10697812Y-16043995D01*
X10697812Y-16043995D02*
X10707336Y-16015423D01*
X10707336Y-16015423D02*
X10716859Y-15996376D01*
X10716859Y-15996376D02*
X10735907Y-15967804D01*
X10735907Y-15967804D02*
X10745431Y-15958280D01*
X10907336Y-16053518D02*
X10907336Y-16186852D01*
X10859717Y-15977328D02*
X10812098Y-16120185D01*
X10812098Y-16120185D02*
X10935907Y-16120185D01*
X11002574Y-16005899D02*
X11012098Y-15996376D01*
X11012098Y-15996376D02*
X11031145Y-15986852D01*
X11031145Y-15986852D02*
X11078764Y-15986852D01*
X11078764Y-15986852D02*
X11097812Y-15996376D01*
X11097812Y-15996376D02*
X11107336Y-16005899D01*
X11107336Y-16005899D02*
X11116859Y-16024947D01*
X11116859Y-16024947D02*
X11116859Y-16043995D01*
X11116859Y-16043995D02*
X11107336Y-16072566D01*
X11107336Y-16072566D02*
X10993050Y-16186852D01*
X10993050Y-16186852D02*
X11116859Y-16186852D01*
X11354955Y-16186852D02*
X11354955Y-15986852D01*
X11440669Y-16186852D02*
X11440669Y-16082090D01*
X11440669Y-16082090D02*
X11431145Y-16063042D01*
X11431145Y-16063042D02*
X11412098Y-16053518D01*
X11412098Y-16053518D02*
X11383526Y-16053518D01*
X11383526Y-16053518D02*
X11364478Y-16063042D01*
X11364478Y-16063042D02*
X11354955Y-16072566D01*
X11564478Y-16186852D02*
X11545431Y-16177328D01*
X11545431Y-16177328D02*
X11535907Y-16167804D01*
X11535907Y-16167804D02*
X11526383Y-16148756D01*
X11526383Y-16148756D02*
X11526383Y-16091614D01*
X11526383Y-16091614D02*
X11535907Y-16072566D01*
X11535907Y-16072566D02*
X11545431Y-16063042D01*
X11545431Y-16063042D02*
X11564478Y-16053518D01*
X11564478Y-16053518D02*
X11593050Y-16053518D01*
X11593050Y-16053518D02*
X11612098Y-16063042D01*
X11612098Y-16063042D02*
X11621621Y-16072566D01*
X11621621Y-16072566D02*
X11631145Y-16091614D01*
X11631145Y-16091614D02*
X11631145Y-16148756D01*
X11631145Y-16148756D02*
X11621621Y-16167804D01*
X11621621Y-16167804D02*
X11612098Y-16177328D01*
X11612098Y-16177328D02*
X11593050Y-16186852D01*
X11593050Y-16186852D02*
X11564478Y-16186852D01*
X11745431Y-16186852D02*
X11726383Y-16177328D01*
X11726383Y-16177328D02*
X11716859Y-16158280D01*
X11716859Y-16158280D02*
X11716859Y-15986852D01*
X11897812Y-16177328D02*
X11878764Y-16186852D01*
X11878764Y-16186852D02*
X11840669Y-16186852D01*
X11840669Y-16186852D02*
X11821621Y-16177328D01*
X11821621Y-16177328D02*
X11812098Y-16158280D01*
X11812098Y-16158280D02*
X11812098Y-16082090D01*
X11812098Y-16082090D02*
X11821621Y-16063042D01*
X11821621Y-16063042D02*
X11840669Y-16053518D01*
X11840669Y-16053518D02*
X11878764Y-16053518D01*
X11878764Y-16053518D02*
X11897812Y-16063042D01*
X11897812Y-16063042D02*
X11907336Y-16082090D01*
X11907336Y-16082090D02*
X11907336Y-16101137D01*
X11907336Y-16101137D02*
X11812098Y-16120185D01*
X11983526Y-16177328D02*
X12002574Y-16186852D01*
X12002574Y-16186852D02*
X12040669Y-16186852D01*
X12040669Y-16186852D02*
X12059717Y-16177328D01*
X12059717Y-16177328D02*
X12069240Y-16158280D01*
X12069240Y-16158280D02*
X12069240Y-16148756D01*
X12069240Y-16148756D02*
X12059717Y-16129709D01*
X12059717Y-16129709D02*
X12040669Y-16120185D01*
X12040669Y-16120185D02*
X12012098Y-16120185D01*
X12012098Y-16120185D02*
X11993050Y-16110661D01*
X11993050Y-16110661D02*
X11983526Y-16091614D01*
X11983526Y-16091614D02*
X11983526Y-16082090D01*
X11983526Y-16082090D02*
X11993050Y-16063042D01*
X11993050Y-16063042D02*
X12012098Y-16053518D01*
X12012098Y-16053518D02*
X12040669Y-16053518D01*
X12040669Y-16053518D02*
X12059717Y-16063042D01*
X12135907Y-16263042D02*
X12145431Y-16253518D01*
X12145431Y-16253518D02*
X12164479Y-16224947D01*
X12164479Y-16224947D02*
X12174002Y-16205899D01*
X12174002Y-16205899D02*
X12183526Y-16177328D01*
X12183526Y-16177328D02*
X12193050Y-16129709D01*
X12193050Y-16129709D02*
X12193050Y-16091614D01*
X12193050Y-16091614D02*
X12183526Y-16043995D01*
X12183526Y-16043995D02*
X12174002Y-16015423D01*
X12174002Y-16015423D02*
X12164479Y-15996376D01*
X12164479Y-15996376D02*
X12145431Y-15967804D01*
X12145431Y-15967804D02*
X12135907Y-15958280D01*
X7170368Y-16359368D02*
G75*
G03*
X7170368Y-16359368I-100000J0D01*
G01*
X7412097Y-16250852D02*
X7535907Y-16250852D01*
X7535907Y-16250852D02*
X7469240Y-16327042D01*
X7469240Y-16327042D02*
X7497811Y-16327042D01*
X7497811Y-16327042D02*
X7516859Y-16336566D01*
X7516859Y-16336566D02*
X7526383Y-16346090D01*
X7526383Y-16346090D02*
X7535907Y-16365137D01*
X7535907Y-16365137D02*
X7535907Y-16412756D01*
X7535907Y-16412756D02*
X7526383Y-16431804D01*
X7526383Y-16431804D02*
X7516859Y-16441328D01*
X7516859Y-16441328D02*
X7497811Y-16450852D01*
X7497811Y-16450852D02*
X7440669Y-16450852D01*
X7440669Y-16450852D02*
X7421621Y-16441328D01*
X7421621Y-16441328D02*
X7412097Y-16431804D01*
X7621621Y-16431804D02*
X7631145Y-16441328D01*
X7631145Y-16441328D02*
X7621621Y-16450852D01*
X7621621Y-16450852D02*
X7612097Y-16441328D01*
X7612097Y-16441328D02*
X7621621Y-16431804D01*
X7621621Y-16431804D02*
X7621621Y-16450852D01*
X7812097Y-16250852D02*
X7716859Y-16250852D01*
X7716859Y-16250852D02*
X7707335Y-16346090D01*
X7707335Y-16346090D02*
X7716859Y-16336566D01*
X7716859Y-16336566D02*
X7735907Y-16327042D01*
X7735907Y-16327042D02*
X7783526Y-16327042D01*
X7783526Y-16327042D02*
X7802573Y-16336566D01*
X7802573Y-16336566D02*
X7812097Y-16346090D01*
X7812097Y-16346090D02*
X7821621Y-16365137D01*
X7821621Y-16365137D02*
X7821621Y-16412756D01*
X7821621Y-16412756D02*
X7812097Y-16431804D01*
X7812097Y-16431804D02*
X7802573Y-16441328D01*
X7802573Y-16441328D02*
X7783526Y-16450852D01*
X7783526Y-16450852D02*
X7735907Y-16450852D01*
X7735907Y-16450852D02*
X7716859Y-16441328D01*
X7716859Y-16441328D02*
X7707335Y-16431804D01*
X7945430Y-16250852D02*
X7964478Y-16250852D01*
X7964478Y-16250852D02*
X7983526Y-16260376D01*
X7983526Y-16260376D02*
X7993050Y-16269899D01*
X7993050Y-16269899D02*
X8002573Y-16288947D01*
X8002573Y-16288947D02*
X8012097Y-16327042D01*
X8012097Y-16327042D02*
X8012097Y-16374661D01*
X8012097Y-16374661D02*
X8002573Y-16412756D01*
X8002573Y-16412756D02*
X7993050Y-16431804D01*
X7993050Y-16431804D02*
X7983526Y-16441328D01*
X7983526Y-16441328D02*
X7964478Y-16450852D01*
X7964478Y-16450852D02*
X7945430Y-16450852D01*
X7945430Y-16450852D02*
X7926383Y-16441328D01*
X7926383Y-16441328D02*
X7916859Y-16431804D01*
X7916859Y-16431804D02*
X7907335Y-16412756D01*
X7907335Y-16412756D02*
X7897811Y-16374661D01*
X7897811Y-16374661D02*
X7897811Y-16327042D01*
X7897811Y-16327042D02*
X7907335Y-16288947D01*
X7907335Y-16288947D02*
X7916859Y-16269899D01*
X7916859Y-16269899D02*
X7926383Y-16260376D01*
X7926383Y-16260376D02*
X7945430Y-16250852D01*
X8135907Y-16250852D02*
X8154954Y-16250852D01*
X8154954Y-16250852D02*
X8174002Y-16260376D01*
X8174002Y-16260376D02*
X8183526Y-16269899D01*
X8183526Y-16269899D02*
X8193050Y-16288947D01*
X8193050Y-16288947D02*
X8202573Y-16327042D01*
X8202573Y-16327042D02*
X8202573Y-16374661D01*
X8202573Y-16374661D02*
X8193050Y-16412756D01*
X8193050Y-16412756D02*
X8183526Y-16431804D01*
X8183526Y-16431804D02*
X8174002Y-16441328D01*
X8174002Y-16441328D02*
X8154954Y-16450852D01*
X8154954Y-16450852D02*
X8135907Y-16450852D01*
X8135907Y-16450852D02*
X8116859Y-16441328D01*
X8116859Y-16441328D02*
X8107335Y-16431804D01*
X8107335Y-16431804D02*
X8097811Y-16412756D01*
X8097811Y-16412756D02*
X8088288Y-16374661D01*
X8088288Y-16374661D02*
X8088288Y-16327042D01*
X8088288Y-16327042D02*
X8097811Y-16288947D01*
X8097811Y-16288947D02*
X8107335Y-16269899D01*
X8107335Y-16269899D02*
X8116859Y-16260376D01*
X8116859Y-16260376D02*
X8135907Y-16250852D01*
X8288288Y-16450852D02*
X8288288Y-16317518D01*
X8288288Y-16336566D02*
X8297811Y-16327042D01*
X8297811Y-16327042D02*
X8316859Y-16317518D01*
X8316859Y-16317518D02*
X8345431Y-16317518D01*
X8345431Y-16317518D02*
X8364478Y-16327042D01*
X8364478Y-16327042D02*
X8374002Y-16346090D01*
X8374002Y-16346090D02*
X8374002Y-16450852D01*
X8374002Y-16346090D02*
X8383526Y-16327042D01*
X8383526Y-16327042D02*
X8402573Y-16317518D01*
X8402573Y-16317518D02*
X8431145Y-16317518D01*
X8431145Y-16317518D02*
X8450193Y-16327042D01*
X8450193Y-16327042D02*
X8459716Y-16346090D01*
X8459716Y-16346090D02*
X8459716Y-16450852D01*
X8554954Y-16450852D02*
X8554954Y-16317518D01*
X8554954Y-16336566D02*
X8564478Y-16327042D01*
X8564478Y-16327042D02*
X8583526Y-16317518D01*
X8583526Y-16317518D02*
X8612097Y-16317518D01*
X8612097Y-16317518D02*
X8631145Y-16327042D01*
X8631145Y-16327042D02*
X8640669Y-16346090D01*
X8640669Y-16346090D02*
X8640669Y-16450852D01*
X8640669Y-16346090D02*
X8650193Y-16327042D01*
X8650193Y-16327042D02*
X8669240Y-16317518D01*
X8669240Y-16317518D02*
X8697812Y-16317518D01*
X8697812Y-16317518D02*
X8716859Y-16327042D01*
X8716859Y-16327042D02*
X8726383Y-16346090D01*
X8726383Y-16346090D02*
X8726383Y-16450852D01*
X9116859Y-16241328D02*
X8945431Y-16498471D01*
X9374002Y-16250852D02*
X9393050Y-16250852D01*
X9393050Y-16250852D02*
X9412097Y-16260376D01*
X9412097Y-16260376D02*
X9421621Y-16269899D01*
X9421621Y-16269899D02*
X9431145Y-16288947D01*
X9431145Y-16288947D02*
X9440669Y-16327042D01*
X9440669Y-16327042D02*
X9440669Y-16374661D01*
X9440669Y-16374661D02*
X9431145Y-16412756D01*
X9431145Y-16412756D02*
X9421621Y-16431804D01*
X9421621Y-16431804D02*
X9412097Y-16441328D01*
X9412097Y-16441328D02*
X9393050Y-16450852D01*
X9393050Y-16450852D02*
X9374002Y-16450852D01*
X9374002Y-16450852D02*
X9354955Y-16441328D01*
X9354955Y-16441328D02*
X9345431Y-16431804D01*
X9345431Y-16431804D02*
X9335907Y-16412756D01*
X9335907Y-16412756D02*
X9326383Y-16374661D01*
X9326383Y-16374661D02*
X9326383Y-16327042D01*
X9326383Y-16327042D02*
X9335907Y-16288947D01*
X9335907Y-16288947D02*
X9345431Y-16269899D01*
X9345431Y-16269899D02*
X9354955Y-16260376D01*
X9354955Y-16260376D02*
X9374002Y-16250852D01*
X9526383Y-16431804D02*
X9535907Y-16441328D01*
X9535907Y-16441328D02*
X9526383Y-16450852D01*
X9526383Y-16450852D02*
X9516859Y-16441328D01*
X9516859Y-16441328D02*
X9526383Y-16431804D01*
X9526383Y-16431804D02*
X9526383Y-16450852D01*
X9726383Y-16450852D02*
X9612097Y-16450852D01*
X9669240Y-16450852D02*
X9669240Y-16250852D01*
X9669240Y-16250852D02*
X9650193Y-16279423D01*
X9650193Y-16279423D02*
X9631145Y-16298471D01*
X9631145Y-16298471D02*
X9612097Y-16307995D01*
X9793050Y-16250852D02*
X9916859Y-16250852D01*
X9916859Y-16250852D02*
X9850193Y-16327042D01*
X9850193Y-16327042D02*
X9878764Y-16327042D01*
X9878764Y-16327042D02*
X9897812Y-16336566D01*
X9897812Y-16336566D02*
X9907336Y-16346090D01*
X9907336Y-16346090D02*
X9916859Y-16365137D01*
X9916859Y-16365137D02*
X9916859Y-16412756D01*
X9916859Y-16412756D02*
X9907336Y-16431804D01*
X9907336Y-16431804D02*
X9897812Y-16441328D01*
X9897812Y-16441328D02*
X9878764Y-16450852D01*
X9878764Y-16450852D02*
X9821621Y-16450852D01*
X9821621Y-16450852D02*
X9802574Y-16441328D01*
X9802574Y-16441328D02*
X9793050Y-16431804D01*
X9983526Y-16250852D02*
X10116859Y-16250852D01*
X10116859Y-16250852D02*
X10031145Y-16450852D01*
X10221621Y-16336566D02*
X10202574Y-16327042D01*
X10202574Y-16327042D02*
X10193050Y-16317518D01*
X10193050Y-16317518D02*
X10183526Y-16298471D01*
X10183526Y-16298471D02*
X10183526Y-16288947D01*
X10183526Y-16288947D02*
X10193050Y-16269899D01*
X10193050Y-16269899D02*
X10202574Y-16260376D01*
X10202574Y-16260376D02*
X10221621Y-16250852D01*
X10221621Y-16250852D02*
X10259717Y-16250852D01*
X10259717Y-16250852D02*
X10278764Y-16260376D01*
X10278764Y-16260376D02*
X10288288Y-16269899D01*
X10288288Y-16269899D02*
X10297812Y-16288947D01*
X10297812Y-16288947D02*
X10297812Y-16298471D01*
X10297812Y-16298471D02*
X10288288Y-16317518D01*
X10288288Y-16317518D02*
X10278764Y-16327042D01*
X10278764Y-16327042D02*
X10259717Y-16336566D01*
X10259717Y-16336566D02*
X10221621Y-16336566D01*
X10221621Y-16336566D02*
X10202574Y-16346090D01*
X10202574Y-16346090D02*
X10193050Y-16355614D01*
X10193050Y-16355614D02*
X10183526Y-16374661D01*
X10183526Y-16374661D02*
X10183526Y-16412756D01*
X10183526Y-16412756D02*
X10193050Y-16431804D01*
X10193050Y-16431804D02*
X10202574Y-16441328D01*
X10202574Y-16441328D02*
X10221621Y-16450852D01*
X10221621Y-16450852D02*
X10259717Y-16450852D01*
X10259717Y-16450852D02*
X10278764Y-16441328D01*
X10278764Y-16441328D02*
X10288288Y-16431804D01*
X10288288Y-16431804D02*
X10297812Y-16412756D01*
X10297812Y-16412756D02*
X10297812Y-16374661D01*
X10297812Y-16374661D02*
X10288288Y-16355614D01*
X10288288Y-16355614D02*
X10278764Y-16346090D01*
X10278764Y-16346090D02*
X10259717Y-16336566D01*
X10374002Y-16250852D02*
X10374002Y-16288947D01*
X10450193Y-16250852D02*
X10450193Y-16288947D01*
X10745431Y-16527042D02*
X10735907Y-16517518D01*
X10735907Y-16517518D02*
X10716859Y-16488947D01*
X10716859Y-16488947D02*
X10707336Y-16469899D01*
X10707336Y-16469899D02*
X10697812Y-16441328D01*
X10697812Y-16441328D02*
X10688288Y-16393709D01*
X10688288Y-16393709D02*
X10688288Y-16355614D01*
X10688288Y-16355614D02*
X10697812Y-16307995D01*
X10697812Y-16307995D02*
X10707336Y-16279423D01*
X10707336Y-16279423D02*
X10716859Y-16260376D01*
X10716859Y-16260376D02*
X10735907Y-16231804D01*
X10735907Y-16231804D02*
X10745431Y-16222280D01*
X10802574Y-16250852D02*
X10926383Y-16250852D01*
X10926383Y-16250852D02*
X10859717Y-16327042D01*
X10859717Y-16327042D02*
X10888288Y-16327042D01*
X10888288Y-16327042D02*
X10907336Y-16336566D01*
X10907336Y-16336566D02*
X10916859Y-16346090D01*
X10916859Y-16346090D02*
X10926383Y-16365137D01*
X10926383Y-16365137D02*
X10926383Y-16412756D01*
X10926383Y-16412756D02*
X10916859Y-16431804D01*
X10916859Y-16431804D02*
X10907336Y-16441328D01*
X10907336Y-16441328D02*
X10888288Y-16450852D01*
X10888288Y-16450852D02*
X10831145Y-16450852D01*
X10831145Y-16450852D02*
X10812098Y-16441328D01*
X10812098Y-16441328D02*
X10802574Y-16431804D01*
X11164479Y-16450852D02*
X11164479Y-16250852D01*
X11250193Y-16450852D02*
X11250193Y-16346090D01*
X11250193Y-16346090D02*
X11240669Y-16327042D01*
X11240669Y-16327042D02*
X11221621Y-16317518D01*
X11221621Y-16317518D02*
X11193050Y-16317518D01*
X11193050Y-16317518D02*
X11174002Y-16327042D01*
X11174002Y-16327042D02*
X11164479Y-16336566D01*
X11374002Y-16450852D02*
X11354955Y-16441328D01*
X11354955Y-16441328D02*
X11345431Y-16431804D01*
X11345431Y-16431804D02*
X11335907Y-16412756D01*
X11335907Y-16412756D02*
X11335907Y-16355614D01*
X11335907Y-16355614D02*
X11345431Y-16336566D01*
X11345431Y-16336566D02*
X11354955Y-16327042D01*
X11354955Y-16327042D02*
X11374002Y-16317518D01*
X11374002Y-16317518D02*
X11402574Y-16317518D01*
X11402574Y-16317518D02*
X11421621Y-16327042D01*
X11421621Y-16327042D02*
X11431145Y-16336566D01*
X11431145Y-16336566D02*
X11440669Y-16355614D01*
X11440669Y-16355614D02*
X11440669Y-16412756D01*
X11440669Y-16412756D02*
X11431145Y-16431804D01*
X11431145Y-16431804D02*
X11421621Y-16441328D01*
X11421621Y-16441328D02*
X11402574Y-16450852D01*
X11402574Y-16450852D02*
X11374002Y-16450852D01*
X11554955Y-16450852D02*
X11535907Y-16441328D01*
X11535907Y-16441328D02*
X11526383Y-16422280D01*
X11526383Y-16422280D02*
X11526383Y-16250852D01*
X11707336Y-16441328D02*
X11688288Y-16450852D01*
X11688288Y-16450852D02*
X11650193Y-16450852D01*
X11650193Y-16450852D02*
X11631145Y-16441328D01*
X11631145Y-16441328D02*
X11621621Y-16422280D01*
X11621621Y-16422280D02*
X11621621Y-16346090D01*
X11621621Y-16346090D02*
X11631145Y-16327042D01*
X11631145Y-16327042D02*
X11650193Y-16317518D01*
X11650193Y-16317518D02*
X11688288Y-16317518D01*
X11688288Y-16317518D02*
X11707336Y-16327042D01*
X11707336Y-16327042D02*
X11716859Y-16346090D01*
X11716859Y-16346090D02*
X11716859Y-16365137D01*
X11716859Y-16365137D02*
X11621621Y-16384185D01*
X11793050Y-16441328D02*
X11812098Y-16450852D01*
X11812098Y-16450852D02*
X11850193Y-16450852D01*
X11850193Y-16450852D02*
X11869240Y-16441328D01*
X11869240Y-16441328D02*
X11878764Y-16422280D01*
X11878764Y-16422280D02*
X11878764Y-16412756D01*
X11878764Y-16412756D02*
X11869240Y-16393709D01*
X11869240Y-16393709D02*
X11850193Y-16384185D01*
X11850193Y-16384185D02*
X11821621Y-16384185D01*
X11821621Y-16384185D02*
X11802574Y-16374661D01*
X11802574Y-16374661D02*
X11793050Y-16355614D01*
X11793050Y-16355614D02*
X11793050Y-16346090D01*
X11793050Y-16346090D02*
X11802574Y-16327042D01*
X11802574Y-16327042D02*
X11821621Y-16317518D01*
X11821621Y-16317518D02*
X11850193Y-16317518D01*
X11850193Y-16317518D02*
X11869240Y-16327042D01*
X11945431Y-16527042D02*
X11954955Y-16517518D01*
X11954955Y-16517518D02*
X11974002Y-16488947D01*
X11974002Y-16488947D02*
X11983526Y-16469899D01*
X11983526Y-16469899D02*
X11993050Y-16441328D01*
X11993050Y-16441328D02*
X12002574Y-16393709D01*
X12002574Y-16393709D02*
X12002574Y-16355614D01*
X12002574Y-16355614D02*
X11993050Y-16307995D01*
X11993050Y-16307995D02*
X11983526Y-16279423D01*
X11983526Y-16279423D02*
X11974002Y-16260376D01*
X11974002Y-16260376D02*
X11954955Y-16231804D01*
X11954955Y-16231804D02*
X11945431Y-16222280D01*
M02*
